<svg id="svg" version="1.1" xmlns="http://www.w3.org/2000/svg" xmlns:xlink="http://www.w3.org/1999/xlink" width="400" height="201.3" viewBox="0, 0, 400,201.3"><g id="svgg"><path id="path0" d="M296.667 12.599 C 294.257 12.793,288.763 13.472,287.302 13.757 C 287.090 13.798,286.467 13.913,285.917 14.013 C 284.710 14.231,280.813 15.102,280.000 15.334 C 279.679 15.426,278.742 15.696,277.917 15.935 C 277.092 16.173,276.117 16.447,275.750 16.542 C 275.383 16.637,275.008 16.771,274.917 16.838 C 274.825 16.906,274.490 17.017,274.172 17.085 C 273.854 17.153,273.479 17.268,273.339 17.340 C 273.198 17.412,272.408 17.712,271.583 18.006 C 270.758 18.300,269.858 18.635,269.583 18.749 C 269.308 18.864,268.483 19.204,267.750 19.504 C 267.017 19.804,265.791 20.338,265.025 20.692 C 264.260 21.045,263.601 21.333,263.561 21.333 C 263.451 21.333,258.394 23.862,257.250 24.490 C 256.007 25.171,254.593 25.984,252.333 27.317 C 249.978 28.707,249.929 28.737,249.833 28.842 C 249.787 28.893,249.450 29.114,249.083 29.333 C 247.906 30.038,245.604 31.542,244.894 32.070 C 244.515 32.353,244.035 32.696,243.827 32.833 C 243.180 33.261,236.822 38.041,235.392 39.174 C 234.646 39.766,233.258 40.862,232.309 41.611 C 231.360 42.359,230.420 43.109,230.221 43.278 C 230.022 43.446,229.620 43.771,229.329 44.000 C 229.037 44.229,228.563 44.615,228.274 44.856 C 227.986 45.098,226.588 46.256,225.167 47.430 C 223.746 48.604,222.358 49.784,222.083 50.054 L 221.583 50.543 223.500 50.432 C 224.554 50.371,228.304 50.213,231.833 50.082 C 235.362 49.951,240.559 49.757,243.382 49.651 C 246.205 49.545,248.560 49.505,248.616 49.561 C 248.715 49.659,248.592 51.110,248.084 55.833 C 247.951 57.071,247.726 59.171,247.585 60.500 C 247.444 61.829,247.216 63.967,247.079 65.250 C 246.941 66.533,246.721 68.671,246.589 70.000 C 246.258 73.340,246.219 73.481,245.430 74.224 L 244.750 74.865 245.500 74.259 C 245.912 73.925,247.563 72.604,249.167 71.322 C 250.771 70.040,252.255 68.846,252.465 68.669 C 252.676 68.491,253.088 68.177,253.382 67.970 C 253.676 67.763,254.008 67.517,254.119 67.422 C 254.673 66.951,257.073 65.184,258.555 64.156 C 259.273 63.658,259.948 63.172,260.055 63.077 C 260.162 62.982,260.550 62.723,260.917 62.503 C 261.283 62.282,261.621 62.055,261.667 61.998 C 261.712 61.942,262.350 61.507,263.083 61.032 C 263.817 60.557,264.529 60.091,264.667 59.996 C 265.553 59.387,268.399 57.667,268.520 57.667 C 268.601 57.667,268.667 57.597,268.667 57.511 C 268.667 57.426,268.829 57.304,269.027 57.242 C 269.225 57.179,270.067 56.714,270.900 56.210 C 271.732 55.705,272.826 55.085,273.331 54.832 C 273.837 54.579,275.190 53.895,276.340 53.311 C 278.351 52.290,279.465 51.766,281.250 51.004 C 281.708 50.809,282.233 50.578,282.417 50.492 C 282.600 50.406,283.575 50.028,284.583 49.653 C 294.648 45.904,303.372 45.004,311.250 46.899 C 316.494 48.161,322.075 50.700,327.000 54.063 C 328.360 54.992,328.393 55.016,328.989 55.508 C 329.559 55.978,330.039 56.062,330.955 55.853 C 331.392 55.753,332.200 55.598,332.750 55.509 C 333.300 55.421,334.425 55.229,335.250 55.084 C 336.075 54.939,337.387 54.714,338.167 54.583 C 338.946 54.453,340.239 54.230,341.041 54.087 C 341.843 53.945,343.137 53.717,343.916 53.581 C 344.696 53.445,345.990 53.218,346.792 53.077 C 347.594 52.936,348.887 52.718,349.667 52.593 C 350.446 52.468,351.290 52.321,351.542 52.266 C 351.794 52.211,352.191 52.127,352.423 52.078 C 352.656 52.030,352.808 51.927,352.760 51.850 C 352.712 51.773,352.562 51.006,352.426 50.146 C 352.291 49.287,352.063 47.927,351.921 47.125 C 351.779 46.323,351.551 45.030,351.414 44.250 C 351.278 43.471,351.051 42.177,350.910 41.375 C 350.579 39.492,350.210 37.346,350.000 36.083 C 349.909 35.533,349.726 34.483,349.594 33.750 C 349.218 31.655,348.864 29.639,348.755 28.970 C 348.675 28.472,348.493 28.240,347.786 27.731 C 341.481 23.193,334.953 19.679,328.000 17.079 C 325.383 16.101,324.638 15.862,320.750 14.762 C 319.035 14.277,316.178 13.676,314.000 13.341 C 312.762 13.150,311.300 12.913,310.750 12.814 C 309.804 12.642,298.306 12.467,296.667 12.599 M299.815 25.652 C 300.007 25.774,300.026 26.422,299.925 29.483 L 299.803 33.167 301.735 33.167 L 303.667 33.167 303.667 34.000 L 303.667 34.833 302.526 34.833 C 301.899 34.833,300.586 34.784,299.609 34.725 L 297.833 34.616 297.833 32.084 C 297.833 30.692,297.882 28.641,297.942 27.526 L 298.051 25.500 298.817 25.503 C 299.239 25.504,299.688 25.571,299.815 25.652 M295.002 26.398 C 297.798 28.249,295.804 32.000,292.024 32.000 L 291.564 32.000 291.684 33.125 C 291.751 33.744,291.854 34.445,291.915 34.684 C 292.018 35.096,291.984 35.123,291.239 35.226 C 289.846 35.417,289.889 35.444,289.781 34.292 C 289.694 33.371,289.405 30.829,289.010 27.500 C 288.851 26.165,288.713 26.288,290.637 26.054 C 292.879 25.783,294.233 25.889,295.002 26.398 M309.398 26.403 C 314.027 27.796,312.423 36.178,307.636 35.611 C 305.132 35.314,303.864 33.287,304.324 30.318 C 304.798 27.263,306.891 25.648,309.398 26.403 M287.154 27.604 C 287.389 28.534,287.617 28.366,285.357 28.929 L 283.464 29.401 283.564 30.129 C 283.732 31.354,283.728 31.352,285.417 30.907 C 287.356 30.396,287.290 30.387,287.505 31.183 C 287.745 32.077,287.754 32.072,285.125 32.678 C 284.690 32.779,284.337 32.911,284.340 32.972 C 284.467 34.958,284.751 35.103,287.210 34.439 C 288.105 34.198,288.866 34.000,288.900 34.000 C 288.984 34.000,289.207 35.515,289.133 35.589 C 289.101 35.621,287.808 35.991,286.259 36.412 C 283.259 37.226,283.276 37.227,283.065 36.333 C 282.801 35.214,281.504 30.378,281.132 29.124 C 280.888 28.301,280.798 28.354,283.803 27.556 C 287.121 26.675,286.920 26.672,287.154 27.604 M291.824 27.616 L 291.065 27.682 291.201 28.954 C 291.366 30.492,291.236 30.365,292.471 30.196 C 295.296 29.810,294.683 27.365,291.824 27.616 M315.034 27.847 C 316.094 28.264,316.161 28.357,316.164 29.403 C 316.166 29.854,316.251 30.710,316.355 31.305 L 316.544 32.387 317.961 30.943 C 319.524 29.353,319.445 29.387,320.648 29.775 C 321.629 30.092,321.667 30.178,321.042 30.668 C 318.707 32.494,316.741 34.784,316.274 36.221 C 315.763 37.789,315.760 37.792,314.613 37.401 C 313.688 37.086,313.710 37.257,314.351 35.419 C 314.740 34.304,314.845 33.765,314.773 33.259 C 314.720 32.887,314.559 31.758,314.415 30.750 C 313.968 27.631,313.954 27.500,314.055 27.500 C 314.110 27.500,314.550 27.656,315.034 27.847 M307.583 28.201 C 306.904 28.591,306.167 30.423,306.167 31.721 C 306.167 33.923,308.541 34.713,309.501 32.831 C 310.886 30.116,309.611 27.038,307.583 28.201 M278.418 30.559 C 281.238 31.872,282.101 36.136,279.948 38.120 C 279.267 38.747,276.310 40.108,276.018 39.928 C 275.948 39.884,275.679 39.339,275.420 38.716 C 275.162 38.093,274.855 37.358,274.737 37.083 C 273.605 34.439,272.474 31.640,272.523 31.603 C 272.556 31.578,272.846 31.458,273.167 31.337 C 273.487 31.216,273.975 31.017,274.250 30.895 C 276.133 30.060,277.168 29.977,278.418 30.559 M275.506 32.185 C 275.280 32.275,275.073 32.371,275.046 32.399 C 275.003 32.442,275.295 33.190,275.835 34.417 C 275.915 34.600,276.257 35.406,276.594 36.208 C 277.269 37.817,277.270 37.817,278.170 37.311 C 279.177 36.745,279.472 35.913,279.093 34.710 C 278.361 32.390,277.142 31.532,275.506 32.185 M146.250 37.676 C 141.300 37.737,136.969 37.797,136.625 37.810 L 136.000 37.833 136.000 42.292 C 136.000 44.744,136.050 50.065,136.111 54.117 L 136.221 61.483 137.790 62.671 C 139.632 64.065,139.237 63.749,142.583 66.509 C 144.050 67.719,145.326 68.793,145.418 68.896 C 145.511 68.999,146.299 69.721,147.168 70.500 C 149.133 72.259,156.126 79.264,159.250 82.602 C 161.346 84.843,162.301 85.880,165.750 89.663 C 166.958 90.988,168.828 93.084,169.917 94.333 C 171.406 96.041,172.748 97.560,173.343 98.212 L 173.936 98.860 176.583 96.055 C 178.038 94.512,180.246 92.162,181.488 90.833 C 182.730 89.504,184.350 87.779,185.087 87.000 C 187.752 84.183,189.130 82.721,190.589 81.167 C 193.318 78.258,194.408 77.102,195.625 75.826 C 197.043 74.340,197.023 74.427,196.152 73.486 C 195.494 72.775,194.014 71.123,193.387 70.398 C 193.220 70.205,192.521 69.424,191.833 68.663 C 191.146 67.902,190.508 67.195,190.417 67.093 C 190.129 66.771,188.644 65.145,186.982 63.331 C 186.101 62.370,185.175 61.358,184.925 61.083 C 181.575 57.404,172.399 48.124,169.845 45.833 C 169.079 45.146,168.209 44.358,167.911 44.083 C 166.959 43.204,166.460 42.776,164.333 41.018 C 163.188 40.071,162.063 39.137,161.833 38.943 C 161.604 38.749,161.097 38.344,160.707 38.045 L 159.997 37.500 157.624 37.532 C 156.318 37.550,151.200 37.615,146.250 37.676 M159.875 53.111 C 162.066 55.407,162.389 56.440,161.427 58.080 C 160.350 59.919,158.304 59.950,156.447 58.155 C 155.220 56.969,155.461 56.967,154.250 58.171 C 153.062 59.353,153.222 59.325,152.410 58.493 L 151.752 57.820 155.001 54.665 C 156.788 52.930,158.287 51.527,158.333 51.547 C 158.379 51.567,159.073 52.271,159.875 53.111 M157.514 55.069 L 156.623 55.971 157.186 56.544 C 158.401 57.776,158.996 57.898,159.662 57.051 C 160.197 56.371,160.098 55.765,159.312 54.913 C 158.466 53.995,158.585 53.985,157.514 55.069 M164.592 58.059 C 165.380 58.825,165.470 58.673,162.551 61.489 L 159.935 64.011 161.335 65.419 L 162.735 66.826 162.103 67.389 L 161.470 67.951 159.398 65.851 L 157.326 63.750 160.538 60.626 C 164.157 57.107,163.827 57.316,164.592 58.059 M171.833 65.572 C 171.833 65.627,170.789 67.871,169.499 70.583 C 169.151 71.317,168.626 72.442,168.334 73.083 C 168.041 73.725,167.779 74.274,167.751 74.303 C 167.667 74.390,166.342 72.931,166.338 72.748 C 166.335 72.655,166.483 72.299,166.667 71.956 C 167.137 71.079,167.119 71.025,165.953 69.869 L 164.905 68.831 164.028 69.283 L 163.151 69.735 162.499 68.992 C 161.659 68.035,161.586 68.159,163.458 67.359 C 164.352 66.977,166.321 66.110,167.833 65.432 L 170.583 64.199 171.208 64.857 C 171.552 65.218,171.833 65.540,171.833 65.572 M167.875 67.428 C 166.468 68.092,166.474 68.077,167.303 68.887 L 167.938 69.508 168.615 68.170 C 168.986 67.435,169.244 66.839,169.187 66.845 C 169.130 66.851,168.540 67.114,167.875 67.428 M175.415 69.165 L 176.065 69.831 175.435 72.290 C 174.556 75.724,174.482 76.038,174.536 76.092 C 174.563 76.118,175.439 75.321,176.484 74.320 C 178.685 72.211,178.423 72.320,179.253 73.170 L 179.908 73.840 178.662 75.034 C 177.977 75.691,176.508 77.119,175.398 78.208 L 173.379 80.188 172.684 79.469 C 172.212 78.981,172.012 78.643,172.062 78.417 C 172.102 78.233,172.373 77.183,172.664 76.083 C 173.430 73.194,173.492 72.942,173.496 72.676 C 173.498 72.543,172.649 73.275,171.609 74.301 C 169.448 76.433,169.567 76.383,168.768 75.498 L 168.163 74.829 171.373 71.671 C 175.077 68.027,174.595 68.326,175.415 69.165 M216.895 101.961 C 215.716 103.220,214.226 104.809,213.584 105.492 C 212.942 106.176,212.342 106.820,212.250 106.923 C 212.013 107.191,208.020 111.461,206.333 113.249 C 205.554 114.075,203.979 115.761,202.833 116.995 C 201.688 118.229,199.726 120.326,198.475 121.656 C 196.558 123.694,196.230 124.117,196.392 124.346 C 196.567 124.595,199.066 127.338,200.250 128.582 C 200.525 128.871,201.500 129.922,202.417 130.919 C 203.333 131.915,204.308 132.964,204.583 133.249 C 204.858 133.534,206.171 134.926,207.500 136.342 C 215.182 144.527,225.326 154.556,228.667 157.271 C 228.987 157.531,229.287 157.793,229.333 157.852 C 229.379 157.911,230.204 158.613,231.167 159.411 C 232.129 160.209,233.067 160.987,233.250 161.140 C 233.433 161.292,233.958 161.717,234.417 162.084 C 234.875 162.450,235.287 162.787,235.333 162.833 C 235.626 163.126,243.398 168.997,243.428 168.948 C 243.439 168.931,243.393 163.367,243.326 156.583 C 243.259 149.800,243.233 144.219,243.269 144.181 C 243.321 144.124,254.764 143.933,264.000 143.834 C 265.546 143.818,265.858 143.775,265.614 143.615 C 265.448 143.506,264.686 142.967,263.922 142.417 C 263.157 141.867,262.366 141.304,262.164 141.167 C 261.961 141.029,261.554 140.729,261.258 140.500 C 260.963 140.271,260.514 139.933,260.260 139.750 C 259.770 139.395,258.748 138.618,258.332 138.285 C 258.195 138.174,257.557 137.673,256.916 137.171 C 255.182 135.814,249.883 131.381,248.847 130.421 C 243.799 125.742,237.510 119.430,231.167 112.673 C 227.548 108.819,224.909 105.972,222.739 103.583 C 222.489 103.308,221.902 102.664,221.434 102.153 C 220.966 101.641,220.321 100.925,220.000 100.562 C 219.679 100.199,219.332 99.850,219.228 99.787 C 219.116 99.718,218.174 100.596,216.895 101.961 M57.852 139.393 C 57.740 140.781,57.544 143.192,57.417 144.750 C 57.290 146.308,57.065 149.158,56.917 151.083 C 56.573 155.541,56.553 155.667,56.201 155.665 C 56.045 155.664,55.092 155.592,54.083 155.504 C 53.075 155.416,51.237 155.266,50.000 155.171 C 48.762 155.076,47.413 154.965,47.000 154.923 C 46.587 154.882,45.725 154.807,45.083 154.756 C 44.442 154.705,40.620 154.398,36.592 154.074 C 32.563 153.750,29.124 153.508,28.949 153.534 C 28.624 153.584,28.831 153.905,30.633 156.143 C 33.136 159.253,33.732 159.910,37.161 163.339 C 40.592 166.769,40.773 166.934,44.250 169.795 C 52.308 176.426,64.296 182.754,74.583 185.807 C 79.469 187.257,82.558 187.922,88.583 188.821 C 92.140 189.352,103.995 189.426,107.333 188.938 C 107.563 188.904,108.500 188.792,109.417 188.687 C 110.333 188.583,111.496 188.424,112.000 188.335 C 118.585 187.166,120.173 186.776,124.917 185.162 C 131.786 182.824,138.245 179.460,144.750 174.833 C 145.392 174.377,146.057 173.909,146.227 173.793 C 146.537 173.584,147.933 172.549,148.250 172.293 C 148.342 172.219,148.881 171.793,149.448 171.347 C 150.015 170.900,150.449 170.505,150.413 170.468 C 150.376 170.432,150.421 169.731,150.513 168.909 C 150.604 168.088,150.786 166.367,150.917 165.083 C 151.049 163.800,151.271 161.681,151.411 160.375 C 152.354 151.601,152.632 148.979,152.909 146.250 C 153.049 144.875,153.164 143.703,153.165 143.646 C 153.168 143.485,152.294 143.341,149.667 143.072 C 146.869 142.786,143.790 142.462,140.250 142.082 C 133.440 141.350,133.111 141.331,132.826 141.635 C 132.681 141.790,132.277 142.142,131.930 142.417 C 131.582 142.692,131.129 143.067,130.924 143.250 C 125.287 148.281,116.866 153.078,111.583 154.267 C 111.492 154.287,110.779 154.453,110.000 154.636 C 109.221 154.818,108.246 155.021,107.833 155.087 C 107.421 155.153,106.896 155.242,106.667 155.286 C 100.130 156.521,90.405 155.744,83.250 153.415 C 79.639 152.240,72.509 149.009,71.667 148.167 C 71.621 148.121,71.433 147.993,71.250 147.882 C 71.067 147.771,70.579 147.477,70.167 147.227 C 69.754 146.978,68.992 146.468,68.474 146.095 C 67.955 145.722,67.365 145.304,67.162 145.167 C 66.959 145.029,66.708 144.842,66.604 144.750 C 66.501 144.658,65.666 143.984,64.750 143.251 C 63.833 142.519,61.952 140.783,60.570 139.394 L 58.057 136.869 57.852 139.393 M85.583 166.503 C 86.958 166.783,88.298 167.055,88.561 167.107 C 89.014 167.197,89.175 168.381,88.787 168.769 C 88.708 168.848,86.937 168.586,86.314 168.404 C 86.111 168.344,86.020 168.478,85.944 168.954 C 85.888 169.300,85.729 170.108,85.590 170.750 C 85.201 172.540,84.804 174.523,84.711 175.138 C 84.641 175.603,84.570 175.679,84.272 175.608 C 84.077 175.561,83.635 175.472,83.292 175.409 C 82.948 175.347,82.667 175.248,82.667 175.190 C 82.667 175.021,83.140 172.530,83.414 171.250 C 84.179 167.680,84.229 167.903,82.609 167.635 C 81.391 167.433,81.299 167.293,81.676 166.212 C 81.843 165.731,81.882 165.714,82.468 165.850 C 82.806 165.928,84.208 166.222,85.583 166.503 M110.500 167.313 C 110.500 167.484,110.545 167.849,110.600 168.123 L 110.699 168.622 109.350 168.841 C 107.839 169.086,107.914 168.971,108.172 170.667 C 108.398 172.154,108.869 175.677,108.895 176.079 C 108.917 176.406,107.303 176.858,107.042 176.598 C 106.927 176.483,106.738 175.238,106.058 170.118 L 105.952 169.320 105.184 169.417 C 104.762 169.471,104.179 169.551,103.888 169.596 C 103.326 169.682,103.307 169.657,103.088 168.567 L 102.984 168.050 104.201 167.852 C 106.021 167.555,109.698 167.037,110.125 167.017 C 110.387 167.005,110.500 167.094,110.500 167.313 M92.906 167.676 C 95.796 167.958,95.667 167.903,95.667 168.854 C 95.667 169.395,95.597 169.666,95.458 169.664 C 94.969 169.657,92.060 169.321,91.811 169.243 C 91.591 169.173,91.518 169.332,91.423 170.092 C 91.279 171.243,91.122 171.126,93.114 171.359 L 94.786 171.556 94.704 172.320 C 94.659 172.740,94.607 173.103,94.587 173.126 C 94.568 173.150,93.814 173.093,92.912 173.000 C 91.625 172.866,91.243 172.875,91.139 173.040 C 90.969 173.306,90.958 175.000,91.125 175.001 C 91.463 175.005,94.298 175.344,94.625 175.419 C 94.923 175.489,95.000 175.622,95.000 176.073 C 95.000 177.070,94.946 177.108,93.704 176.978 C 93.088 176.914,91.762 176.777,90.757 176.674 C 88.529 176.445,88.734 176.727,88.961 174.204 C 89.656 166.483,89.482 167.319,90.377 167.419 C 90.766 167.462,91.904 167.578,92.906 167.676 M101.569 168.381 C 102.278 168.772,102.993 169.811,102.997 170.458 C 103.002 171.153,101.138 171.010,100.822 170.292 C 100.401 169.337,98.839 169.286,98.266 170.208 C 97.982 170.666,98.329 171.038,99.432 171.459 C 102.664 172.692,103.720 174.139,102.684 175.917 C 101.322 178.256,96.000 177.297,96.000 174.711 L 96.000 174.167 97.000 174.167 C 97.869 174.167,98.000 174.208,98.000 174.482 C 98.000 175.341,99.319 175.920,100.325 175.503 C 101.373 175.069,101.055 174.064,99.715 173.575 C 96.784 172.506,95.968 171.669,96.247 170.019 C 96.556 168.186,99.547 167.266,101.569 168.381 " stroke="none" fill="#247cc4" fill-rule="evenodd"></path><path id="path1" d="M94.274 26.518 C 94.217 27.746,94.124 29.769,94.067 31.015 L 93.963 33.281 95.606 33.385 C 99.326 33.622,101.025 32.182,101.046 28.774 C 101.064 25.914,99.614 24.604,96.203 24.397 L 94.376 24.286 94.274 26.518 M87.000 25.099 C 83.168 26.759,84.589 33.985,88.750 33.995 C 91.588 34.002,93.071 31.512,92.319 28.006 C 91.787 25.524,89.237 24.130,87.000 25.099 M102.727 29.364 C 102.257 31.776,101.900 33.780,101.933 33.816 C 102.009 33.899,107.716 35.006,107.773 34.949 C 107.796 34.926,107.885 34.596,107.970 34.216 C 108.149 33.422,108.365 33.538,105.833 33.075 C 103.896 32.720,103.990 32.812,104.238 31.500 C 104.472 30.261,104.306 30.313,106.556 30.765 C 108.042 31.064,107.999 31.079,108.115 30.212 L 108.202 29.562 106.518 29.253 C 105.018 28.978,104.834 28.906,104.837 28.597 C 104.842 28.227,105.100 27.011,105.194 26.918 C 105.225 26.887,106.112 27.037,107.167 27.252 C 109.293 27.685,109.290 27.686,109.364 26.758 L 109.417 26.100 107.083 25.656 C 105.800 25.412,104.487 25.159,104.166 25.095 L 103.582 24.978 102.727 29.364 M298.101 26.708 C 298.051 27.281,297.964 29.263,297.907 31.113 L 297.805 34.475 298.527 34.565 C 298.925 34.614,300.198 34.683,301.357 34.718 L 303.465 34.781 303.560 34.198 C 303.689 33.402,303.612 33.333,302.598 33.333 C 302.113 33.333,301.255 33.285,300.693 33.226 L 299.670 33.119 299.778 29.393 L 299.887 25.667 299.040 25.667 L 298.193 25.667 298.101 26.708 M98.354 26.430 C 99.850 27.764,99.270 31.357,97.480 31.839 C 95.928 32.257,95.867 32.081,96.111 27.857 L 96.220 25.963 97.107 26.037 C 97.663 26.083,98.129 26.230,98.354 26.430 M290.417 26.205 C 289.683 26.293,289.063 26.384,289.038 26.408 C 289.013 26.432,289.219 28.384,289.496 30.745 C 289.773 33.107,290.000 35.103,290.000 35.182 C 290.000 35.312,290.421 35.279,291.470 35.066 C 291.790 35.001,291.842 34.909,291.769 34.536 C 291.720 34.287,291.631 33.577,291.571 32.958 L 291.461 31.833 292.189 31.831 C 294.723 31.824,296.365 30.448,296.104 28.549 C 295.797 26.303,294.398 25.727,290.417 26.205 M89.339 26.586 C 90.105 26.983,90.667 28.506,90.667 30.191 C 90.667 32.681,88.019 33.290,87.068 31.019 C 85.915 28.266,87.312 25.538,89.339 26.586 M306.667 26.778 C 305.196 27.535,304.333 29.305,304.333 31.567 C 304.333 36.028,310.116 37.045,311.590 32.843 C 313.079 28.599,310.147 24.988,306.667 26.778 M78.583 26.701 C 74.627 28.084,76.074 35.698,80.286 35.659 C 82.622 35.638,85.011 33.130,84.044 31.716 C 83.702 31.217,82.233 31.941,82.233 32.608 C 82.233 33.746,80.621 34.560,79.693 33.889 C 78.816 33.254,77.832 30.479,78.081 29.343 C 78.416 27.820,80.519 27.538,81.288 28.913 C 81.429 29.164,81.528 29.173,82.182 28.987 C 83.229 28.688,83.276 28.598,82.776 27.843 C 81.987 26.651,80.155 26.152,78.583 26.701 M284.000 27.639 C 282.487 28.041,281.220 28.398,281.184 28.432 C 281.120 28.491,283.300 36.856,283.408 36.963 C 283.462 37.018,287.635 35.965,288.636 35.644 C 289.022 35.520,289.161 35.391,289.094 35.218 C 289.042 35.081,288.953 34.789,288.898 34.568 C 288.776 34.081,288.962 34.072,286.756 34.668 C 284.689 35.228,284.782 35.258,284.437 33.923 C 284.131 32.740,284.058 32.813,286.050 32.321 L 287.529 31.956 287.416 31.353 C 287.262 30.527,287.343 30.541,285.490 31.029 C 284.578 31.270,283.805 31.418,283.771 31.358 C 283.737 31.299,283.610 30.851,283.487 30.364 C 283.223 29.313,283.219 29.318,284.823 28.920 C 287.441 28.272,287.411 28.294,286.951 27.328 L 286.750 26.907 284.000 27.639 M293.820 27.792 C 294.380 28.249,294.452 29.176,293.972 29.734 C 293.552 30.224,291.542 30.647,291.314 30.295 C 291.166 30.066,290.978 27.838,291.091 27.654 C 291.270 27.364,293.429 27.472,293.820 27.792 M314.167 28.052 C 314.167 28.252,314.353 29.675,314.580 31.213 L 314.993 34.010 314.494 35.378 C 313.905 36.990,313.917 37.050,314.889 37.381 L 315.637 37.636 316.172 36.110 C 316.508 35.155,316.872 34.434,317.146 34.186 C 319.147 32.367,321.302 30.145,321.127 30.082 C 321.012 30.040,320.604 29.897,320.221 29.765 L 319.526 29.524 317.956 31.117 L 316.387 32.709 316.152 30.494 L 315.917 28.279 315.042 27.983 L 314.167 27.687 314.167 28.052 M309.728 28.514 C 310.190 29.031,310.203 29.095,310.136 30.485 C 309.991 33.527,308.285 34.985,306.711 33.411 L 306.121 32.821 306.205 31.348 C 306.381 28.268,308.200 26.804,309.728 28.514 M274.361 30.991 C 273.505 31.348,272.768 31.676,272.722 31.722 C 272.677 31.768,273.202 33.143,273.890 34.778 C 274.578 36.412,275.339 38.247,275.580 38.855 L 276.020 39.961 277.330 39.408 C 279.908 38.321,280.681 37.622,280.999 36.088 C 281.414 34.091,280.182 31.514,278.417 30.684 C 277.264 30.142,276.209 30.222,274.361 30.991 M277.829 32.272 C 279.672 33.823,279.783 36.677,278.033 37.524 C 277.130 37.962,277.237 38.091,275.946 35.000 L 274.867 32.417 275.475 32.129 C 276.383 31.701,277.210 31.751,277.829 32.272 M155.083 54.754 L 151.917 57.815 152.541 58.445 L 153.165 59.076 154.243 58.007 L 155.322 56.938 156.321 57.892 C 158.175 59.660,159.679 59.819,161.031 58.390 C 162.433 56.908,162.066 55.465,159.688 53.113 L 158.250 51.692 155.083 54.754 M159.401 54.851 C 161.221 56.876,159.249 58.726,157.279 56.841 L 156.417 56.016 157.411 55.008 C 158.608 53.796,158.463 53.807,159.401 54.851 M160.701 60.634 L 157.485 63.750 159.480 65.751 L 161.476 67.753 162.009 67.276 L 162.543 66.800 161.149 65.399 L 159.755 63.997 162.377 61.485 C 165.346 58.641,165.173 58.920,164.458 58.123 L 163.917 57.519 160.701 60.634 M166.833 66.022 C 164.771 66.935,162.835 67.790,162.531 67.921 L 161.978 68.159 162.517 68.829 C 163.151 69.619,163.120 69.614,164.146 69.094 L 164.947 68.688 166.057 69.807 C 167.319 71.078,167.309 71.048,166.755 72.023 L 166.344 72.747 166.956 73.374 C 167.747 74.184,167.679 74.219,168.421 72.625 C 168.773 71.869,169.541 70.237,170.129 69.000 C 170.716 67.762,171.313 66.462,171.455 66.110 L 171.715 65.470 171.149 64.916 L 170.583 64.363 166.833 66.022 M168.747 68.172 L 167.974 69.712 167.151 68.901 L 166.327 68.090 167.872 67.312 C 169.749 66.367,169.686 66.304,168.747 68.172 M362.757 68.583 C 359.491 69.925,358.424 72.568,360.173 74.982 C 361.682 77.065,365.214 76.748,367.382 74.336 C 370.265 71.130,366.860 66.896,362.757 68.583 M171.443 71.773 L 168.302 74.869 168.851 75.434 C 169.592 76.200,169.494 76.248,171.745 74.005 C 172.842 72.912,173.756 72.034,173.776 72.054 C 173.797 72.074,173.432 73.568,172.965 75.373 L 172.117 78.655 172.684 79.312 C 173.392 80.134,172.941 80.416,176.593 76.868 L 179.731 73.820 179.118 73.207 L 178.505 72.594 177.794 73.253 C 177.403 73.615,176.465 74.511,175.708 75.244 C 174.952 75.977,174.333 76.484,174.333 76.372 C 174.333 76.259,174.671 74.867,175.083 73.277 C 175.980 69.823,175.977 69.871,175.284 69.199 C 174.588 68.525,175.055 68.212,171.443 71.773 M366.377 70.519 C 367.348 71.698,366.806 72.868,364.800 73.923 C 362.678 75.038,361.000 74.603,361.000 72.939 C 361.000 70.938,365.175 69.059,366.377 70.519 M366.219 77.273 L 362.022 78.687 362.264 79.385 C 362.397 79.769,362.538 80.174,362.578 80.284 C 362.630 80.427,363.064 80.345,364.106 79.992 C 364.907 79.721,365.580 79.500,365.601 79.500 C 365.622 79.500,365.769 79.894,365.926 80.375 C 366.580 82.373,367.388 83.283,368.662 83.454 C 370.521 83.703,372.275 81.902,371.933 80.094 C 371.787 79.325,370.617 75.831,370.510 75.846 C 370.459 75.854,368.528 76.496,366.219 77.273 M370.053 79.056 C 370.808 81.452,368.622 82.803,367.648 80.544 C 367.046 79.150,367.095 79.008,368.333 78.573 C 369.788 78.062,369.735 78.047,370.053 79.056 M205.364 84.125 L 203.361 86.250 205.806 88.591 C 207.150 89.879,208.615 91.265,209.062 91.673 L 209.873 92.413 211.954 90.268 L 214.034 88.124 213.508 87.604 L 212.981 87.083 211.578 88.542 C 209.929 90.255,210.109 90.208,209.113 89.197 L 208.323 88.395 208.680 88.072 C 208.877 87.895,209.415 87.315,209.875 86.784 L 210.714 85.817 210.239 85.322 L 209.764 84.826 208.492 86.091 L 207.219 87.356 206.526 86.734 C 205.626 85.926,205.610 85.981,207.201 84.382 L 208.569 83.007 208.087 82.503 C 207.444 81.833,207.628 81.724,205.364 84.125 M26.024 83.335 C 24.637 83.926,23.957 84.928,23.483 87.084 C 23.035 89.121,22.978 89.038,25.107 89.462 C 26.102 89.661,28.003 90.046,29.330 90.318 C 32.105 90.886,31.876 90.989,32.239 89.008 C 32.780 86.063,32.187 84.560,30.132 83.662 C 29.149 83.232,26.721 83.039,26.024 83.335 M368.667 85.335 C 366.329 85.776,364.411 86.143,364.405 86.152 C 364.399 86.160,364.632 87.460,364.923 89.042 L 365.453 91.917 366.163 91.883 C 367.063 91.841,367.019 92.061,366.594 89.750 L 366.227 87.750 366.604 87.642 C 367.756 87.312,368.667 87.297,368.666 87.609 C 368.666 87.778,368.785 88.564,368.930 89.354 L 369.194 90.792 369.884 90.637 C 370.263 90.552,370.595 90.460,370.622 90.434 C 370.662 90.394,370.394 88.894,370.079 87.398 C 370.013 87.082,371.100 86.667,371.994 86.667 C 372.052 86.667,372.243 87.493,372.417 88.503 C 372.808 90.768,372.787 90.732,373.660 90.584 C 374.268 90.482,374.350 90.418,374.278 90.108 C 374.232 89.911,373.987 88.569,373.732 87.125 C 373.470 85.639,373.193 84.507,373.093 84.517 C 372.996 84.526,371.004 84.894,368.667 85.335 M28.576 85.086 C 30.271 85.365,31.097 86.270,30.959 87.698 C 30.853 88.803,30.995 88.780,27.962 88.175 C 24.585 87.502,24.787 87.621,25.157 86.530 C 25.563 85.328,26.418 84.738,27.500 84.911 C 27.729 84.948,28.213 85.026,28.576 85.086 M201.798 88.364 C 201.068 88.560,199.769 89.653,199.385 90.394 C 197.869 93.318,200.364 95.118,203.621 93.450 C 204.985 92.751,205.521 92.688,206.000 93.167 C 206.929 94.095,205.242 95.835,203.889 95.346 C 203.309 95.136,201.996 96.086,202.264 96.521 C 203.555 98.626,208.424 95.560,207.934 92.950 C 207.562 90.965,205.799 90.550,203.160 91.827 C 201.307 92.723,200.667 92.622,200.667 91.432 C 200.667 90.476,202.486 89.469,202.926 90.182 C 203.036 90.360,204.333 89.244,204.333 88.970 C 204.333 88.527,202.671 88.130,201.798 88.364 M30.275 92.542 C 30.217 93.023,30.169 93.897,30.168 94.483 L 30.167 95.550 28.542 95.445 C 27.648 95.387,25.972 95.290,24.818 95.229 L 22.719 95.119 22.613 96.008 C 22.485 97.094,21.859 96.923,26.833 97.160 C 29.171 97.271,31.157 97.375,31.246 97.390 C 31.395 97.414,31.464 96.794,31.732 92.958 L 31.823 91.667 31.101 91.667 L 30.380 91.667 30.275 92.542 M369.667 92.675 C 367.879 92.738,366.206 92.799,365.950 92.811 C 365.493 92.833,365.484 92.853,365.533 93.708 L 365.583 94.583 367.208 94.631 L 368.833 94.679 368.833 95.381 L 368.833 96.083 367.253 96.964 L 365.674 97.844 365.686 99.547 C 365.692 100.484,365.672 101.359,365.640 101.492 C 365.596 101.679,366.584 102.334,367.283 102.582 C 367.325 102.597,367.019 104.963,366.912 105.448 C 366.850 105.734,366.670 105.837,366.090 105.924 C 365.078 106.076,364.889 106.274,364.777 107.301 C 364.691 108.082,364.713 108.175,364.965 108.097 C 365.122 108.048,366.750 107.667,368.583 107.250 C 374.656 105.868,374.079 106.098,374.220 104.999 L 374.316 104.248 370.403 102.181 C 368.251 101.044,366.381 100.032,366.247 99.932 C 366.052 99.786,366.336 99.561,367.679 98.796 L 369.355 97.842 369.969 98.488 C 372.103 100.731,374.666 98.963,374.664 95.250 C 374.662 92.667,374.600 92.494,373.687 92.530 C 373.263 92.547,371.454 92.612,369.667 92.675 M373.094 95.083 C 373.387 96.645,372.466 97.796,371.282 97.346 C 370.722 97.133,370.568 96.801,370.442 95.542 L 370.338 94.500 371.662 94.500 L 372.985 94.500 373.094 95.083 M194.443 95.473 L 193.844 96.086 195.187 98.835 C 195.926 100.347,196.865 102.291,197.275 103.155 L 198.019 104.726 198.710 104.036 L 199.400 103.345 199.081 102.714 C 198.439 101.448,198.416 101.554,199.600 100.328 L 200.701 99.187 201.613 99.635 L 202.525 100.082 203.203 99.355 L 203.881 98.629 199.732 96.848 C 197.450 95.869,195.461 95.021,195.312 94.964 C 195.133 94.895,194.839 95.067,194.443 95.473 M197.776 97.827 C 199.350 98.564,199.361 98.602,198.305 99.617 L 197.750 100.151 196.948 98.659 C 196.508 97.838,196.197 97.167,196.257 97.167 C 196.318 97.167,197.002 97.464,197.776 97.827 M27.417 99.025 C 25.583 99.102,23.765 99.207,23.375 99.259 L 22.667 99.354 22.667 100.258 L 22.667 101.162 23.625 101.081 C 24.152 101.037,26.157 100.920,28.081 100.822 C 32.157 100.614,31.683 100.767,31.556 99.699 C 31.467 98.950,31.406 98.837,31.102 98.859 C 30.908 98.873,29.250 98.947,27.417 99.025 M189.205 100.973 L 187.190 103.112 188.803 104.681 C 189.691 105.544,191.133 106.947,192.009 107.797 L 193.601 109.344 195.592 107.333 C 197.913 104.989,197.840 105.117,197.227 104.472 L 196.750 103.971 195.333 105.476 L 193.917 106.981 193.025 106.152 L 192.133 105.324 193.335 104.059 L 194.537 102.793 194.005 102.272 L 193.473 101.750 192.274 103.040 L 191.075 104.329 190.288 103.542 L 189.501 102.755 190.952 101.298 L 192.403 99.841 191.920 99.337 C 191.283 98.672,191.489 98.548,189.205 100.973 M25.833 103.110 C 24.596 103.332,23.407 103.552,23.191 103.598 C 22.824 103.676,22.806 103.735,22.913 104.466 C 23.069 105.536,22.986 105.516,25.417 105.065 C 30.070 104.201,30.833 104.344,30.833 106.077 C 30.833 107.278,30.523 107.435,26.896 108.062 L 23.750 108.606 23.804 109.427 C 23.875 110.500,23.621 110.457,26.794 109.934 C 31.700 109.126,32.336 108.699,32.332 106.214 C 32.326 102.992,30.733 102.231,25.833 103.110 M370.333 104.076 C 371.910 104.883,371.957 104.790,369.750 105.231 C 369.108 105.359,368.564 105.447,368.541 105.426 C 368.454 105.347,368.719 103.334,368.815 103.342 C 368.871 103.346,369.554 103.677,370.333 104.076 M183.076 107.340 L 182.430 108.002 185.182 110.651 C 186.696 112.108,188.176 113.503,188.472 113.752 L 189.009 114.204 190.989 112.144 L 192.969 110.083 192.537 109.625 C 191.944 108.997,191.952 108.993,190.501 110.540 L 189.213 111.914 186.468 109.296 L 183.723 106.679 183.076 107.340 M179.625 110.906 C 178.548 112.020,177.667 113.003,177.668 113.090 C 177.668 113.236,182.093 117.555,183.518 118.801 L 184.120 119.327 186.169 117.151 L 188.218 114.975 187.714 114.471 L 187.210 113.967 185.742 115.490 L 184.273 117.013 183.386 116.136 L 182.498 115.259 183.752 113.998 L 185.007 112.736 184.536 112.284 C 183.908 111.683,183.950 111.667,182.716 113.000 C 181.452 114.365,181.432 114.369,180.582 113.499 L 179.930 112.831 180.759 111.957 C 181.215 111.477,181.845 110.802,182.159 110.459 L 182.731 109.835 182.251 109.334 C 181.646 108.703,181.904 108.549,179.625 110.906 M371.668 110.494 C 371.484 111.113,371.333 111.710,371.333 111.821 C 371.333 111.935,371.207 111.985,371.042 111.936 C 366.393 110.551,364.112 109.986,363.987 110.187 C 363.814 110.467,363.607 111.662,363.713 111.768 C 363.756 111.812,365.283 112.267,367.104 112.780 C 371.059 113.893,370.759 113.670,370.341 115.179 C 370.153 115.856,370.000 116.427,370.000 116.449 C 370.000 116.533,371.372 116.850,371.440 116.782 C 371.530 116.692,373.308 110.546,373.371 110.106 C 373.406 109.863,373.252 109.741,372.710 109.580 L 372.003 109.369 371.668 110.494 M30.250 110.759 C 29.583 111.103,29.175 111.649,29.170 112.206 L 29.167 112.662 28.625 112.332 C 27.096 111.400,25.342 112.489,25.336 114.373 C 25.334 115.071,26.118 117.935,26.521 118.701 C 26.655 118.956,27.095 118.841,30.891 117.552 L 35.112 116.118 34.458 114.184 C 33.314 110.798,32.098 109.808,30.250 110.759 M32.114 112.582 C 32.559 112.893,33.245 114.815,32.950 114.923 C 32.840 114.963,32.326 115.141,31.809 115.317 L 30.867 115.637 30.604 114.944 C 29.858 112.983,30.733 111.614,32.114 112.582 M28.613 113.915 C 28.931 114.137,29.500 115.424,29.500 115.920 C 29.500 116.104,27.558 116.795,27.443 116.652 C 27.262 116.428,26.833 115.096,26.833 114.759 C 26.833 113.956,27.930 113.436,28.613 113.915 M362.259 115.533 C 362.132 115.836,361.609 117.015,361.097 118.154 C 360.585 119.292,360.167 120.310,360.167 120.414 C 360.167 120.562,361.152 121.167,361.392 121.167 C 361.418 121.167,361.806 120.337,362.254 119.324 C 363.161 117.272,363.048 117.338,364.538 117.997 L 365.307 118.337 364.580 119.951 L 363.853 121.565 364.468 121.842 C 365.248 122.194,365.161 122.272,365.917 120.551 C 366.271 119.744,366.582 119.054,366.609 119.019 C 366.635 118.983,367.069 119.133,367.574 119.352 C 368.635 119.813,368.636 119.643,367.571 121.990 L 366.857 123.564 367.537 123.868 C 367.910 124.036,368.245 124.144,368.280 124.109 C 368.537 123.852,370.659 118.760,370.552 118.656 C 370.478 118.584,368.767 117.798,366.750 116.910 C 364.733 116.023,362.950 115.226,362.787 115.140 C 362.543 115.011,362.449 115.082,362.259 115.533 M175.583 115.559 C 175.023 115.820,174.291 116.433,173.351 117.427 L 171.953 118.906 175.185 122.025 L 178.417 125.145 179.080 124.490 L 179.743 123.835 178.599 122.683 L 177.456 121.530 177.823 121.015 C 178.271 120.386,178.177 120.386,180.215 121.015 L 181.883 121.530 182.623 120.789 L 183.363 120.049 181.348 119.483 L 179.333 118.918 179.333 117.984 C 179.333 115.874,177.478 114.675,175.583 115.559 M177.346 117.487 C 177.956 118.097,177.958 118.446,177.358 119.267 C 176.369 120.617,176.357 120.619,175.276 119.526 L 174.319 118.559 175.152 117.780 C 176.148 116.849,176.642 116.783,177.346 117.487 M322.833 163.729 C 322.378 163.896,319.581 165.131,319.372 165.256 C 319.348 165.271,319.976 166.701,320.767 168.433 C 321.559 170.166,322.384 171.977,322.601 172.458 C 322.818 172.940,323.075 173.333,323.171 173.333 C 323.552 173.333,324.690 172.634,324.613 172.448 C 324.568 172.339,324.268 171.679,323.947 170.982 L 323.363 169.714 323.937 169.440 C 324.714 169.070,324.607 169.031,326.171 170.254 C 326.936 170.851,327.605 171.320,327.657 171.295 C 327.709 171.270,328.107 171.109,328.542 170.936 C 328.977 170.763,329.330 170.575,329.326 170.519 C 329.321 170.436,326.855 168.504,326.308 168.155 C 326.226 168.102,326.317 167.703,326.509 167.268 C 327.544 164.928,325.341 162.807,322.833 163.729 M273.047 167.868 C 272.309 170.003,271.658 171.907,271.600 172.100 C 271.492 172.456,272.915 173.134,273.192 172.858 C 273.315 172.736,274.300 169.810,274.772 168.167 L 275.083 167.083 275.189 168.167 C 275.247 168.762,275.303 170.269,275.314 171.514 L 275.333 173.777 275.920 173.958 L 276.508 174.138 277.631 172.777 C 278.248 172.029,279.194 170.871,279.733 170.203 C 280.826 168.850,280.988 168.778,280.528 169.851 C 279.997 171.092,278.630 174.853,278.692 174.904 C 278.724 174.930,279.109 175.072,279.549 175.218 L 280.347 175.485 280.525 175.034 C 280.622 174.786,280.762 174.396,280.835 174.167 C 280.908 173.938,281.496 172.234,282.142 170.382 L 283.317 167.014 282.159 166.641 C 281.091 166.297,280.985 166.290,280.792 166.543 C 280.677 166.694,279.721 167.900,278.667 169.224 L 276.750 171.631 276.705 168.178 L 276.660 164.726 275.705 164.425 C 275.180 164.259,274.668 164.093,274.569 164.054 C 274.462 164.013,273.837 165.578,273.047 167.868 M324.513 165.487 C 324.986 165.960,325.117 166.502,324.896 167.078 C 324.799 167.330,322.869 168.425,322.743 168.299 C 322.624 168.180,321.662 165.950,321.709 165.902 C 321.850 165.762,323.614 165.003,323.804 165.002 C 323.926 165.001,324.245 165.219,324.513 165.487 M81.773 166.204 C 81.509 167.191,81.584 167.282,82.917 167.578 C 83.604 167.731,84.167 167.911,84.167 167.978 C 84.167 168.045,83.842 169.686,83.444 171.625 L 82.722 175.151 83.557 175.330 C 84.513 175.535,84.575 175.488,84.737 174.435 C 84.822 173.888,85.535 170.342,85.918 168.568 C 85.992 168.225,86.016 168.223,87.267 168.456 C 88.647 168.713,88.740 168.681,88.889 167.884 C 89.007 167.251,89.334 167.373,85.417 166.587 C 83.767 166.256,82.295 165.949,82.146 165.904 C 81.966 165.851,81.840 165.953,81.773 166.204 M314.999 166.480 C 312.556 167.277,311.651 169.296,312.502 172.049 C 313.473 175.193,315.999 176.413,318.427 174.911 C 322.088 172.648,319.043 165.160,314.999 166.480 M108.667 167.337 C 108.162 167.407,106.775 167.591,105.583 167.748 C 103.114 168.071,103.103 168.076,103.258 168.901 L 103.373 169.512 104.395 169.393 C 106.223 169.180,106.024 168.967,106.363 171.500 C 106.529 172.737,106.749 174.377,106.852 175.144 L 107.040 176.538 107.892 176.425 C 108.361 176.362,108.763 176.292,108.787 176.269 C 108.811 176.245,108.606 174.619,108.332 172.655 C 108.058 170.691,107.833 169.036,107.833 168.978 C 107.833 168.920,108.395 168.820,109.082 168.755 C 110.480 168.624,110.578 168.551,110.426 167.739 C 110.307 167.107,110.315 167.109,108.667 167.337 M89.286 171.854 C 89.033 174.252,88.853 176.242,88.887 176.276 C 88.921 176.310,89.954 176.448,91.183 176.583 C 92.411 176.718,93.735 176.866,94.125 176.911 L 94.833 176.994 94.833 176.268 L 94.833 175.543 94.042 175.445 C 93.606 175.391,92.696 175.296,92.019 175.233 L 90.789 175.119 90.886 173.957 C 91.007 172.517,90.823 172.627,92.750 172.842 C 94.536 173.041,94.659 172.996,94.664 172.146 C 94.667 171.644,94.503 171.590,92.436 171.402 L 91.155 171.286 91.266 170.268 C 91.328 169.708,91.401 169.222,91.431 169.189 C 91.460 169.155,92.357 169.217,93.423 169.327 C 95.605 169.552,95.537 169.571,95.564 168.714 L 95.583 168.083 93.917 167.901 C 93.000 167.801,91.687 167.668,90.998 167.606 L 89.747 167.493 89.286 171.854 M285.536 168.021 C 282.972 169.289,282.495 174.575,284.808 176.079 C 287.618 177.906,290.588 176.119,290.934 172.392 C 291.265 168.826,288.474 166.566,285.536 168.021 M306.917 168.318 L 303.917 168.764 303.873 169.257 C 303.796 170.139,303.979 170.235,305.352 170.031 C 306.839 169.810,306.577 169.308,307.204 173.577 L 307.737 177.205 308.558 177.108 C 309.009 177.054,309.413 176.976,309.455 176.933 C 309.498 176.891,309.302 175.265,309.021 173.320 C 308.428 169.215,308.358 169.551,309.841 169.404 C 311.157 169.275,311.242 169.206,311.092 168.406 C 310.960 167.702,311.039 167.704,306.917 168.318 M316.822 168.315 C 318.200 169.292,318.730 172.663,317.648 173.573 C 316.059 174.911,313.998 172.859,314.001 169.941 C 314.002 168.249,315.507 167.382,316.822 168.315 M98.083 168.240 C 95.251 169.285,95.829 172.082,99.114 173.222 C 100.596 173.737,101.000 174.053,101.000 174.696 C 101.000 176.041,98.237 176.087,97.901 174.748 C 97.784 174.280,95.996 174.086,96.004 174.542 C 96.062 177.865,102.830 178.022,102.833 174.700 C 102.834 173.306,102.130 172.570,100.158 171.902 C 98.204 171.241,97.639 170.529,98.471 169.776 C 99.173 169.141,101.000 169.603,101.000 170.417 C 101.000 170.609,101.213 170.667,101.917 170.667 C 102.954 170.667,103.026 170.540,102.557 169.552 C 101.950 168.271,99.749 167.626,98.083 168.240 M292.594 169.042 C 292.484 169.565,292.104 177.327,292.184 177.406 C 292.221 177.441,292.625 177.494,293.083 177.522 L 293.917 177.574 294.065 174.787 C 294.147 173.254,294.261 172.000,294.318 172.000 C 294.375 172.000,295.128 173.313,295.991 174.917 L 297.559 177.833 298.430 177.833 L 299.301 177.833 299.397 176.875 C 299.542 175.439,299.873 169.150,299.807 169.090 C 299.776 169.061,299.368 168.986,298.901 168.923 L 298.052 168.809 297.943 170.446 C 297.884 171.347,297.829 172.496,297.822 173.000 C 297.797 174.855,297.676 174.763,295.994 171.608 L 294.427 168.667 293.550 168.667 C 292.775 168.667,292.664 168.710,292.594 169.042 M301.850 168.789 L 301.284 168.858 301.388 170.721 C 301.446 171.745,301.543 173.727,301.605 175.125 L 301.718 177.667 302.632 177.667 L 303.545 177.667 303.442 175.625 C 303.385 174.502,303.290 172.477,303.230 171.125 C 303.109 168.380,303.250 168.618,301.850 168.789 M288.189 169.361 C 290.094 170.069,289.070 175.242,287.024 175.242 C 284.691 175.242,284.388 170.444,286.649 169.304 C 287.193 169.029,287.308 169.034,288.189 169.361 " stroke="none" fill="#f8fafb" fill-rule="evenodd"></path><path id="path2" d="M91.917 11.852 C 86.258 12.384,84.256 12.672,79.833 13.590 C 77.569 14.060,76.029 14.445,73.833 15.089 C 73.329 15.237,72.617 15.438,72.250 15.535 C 71.883 15.633,71.512 15.777,71.425 15.856 C 71.338 15.935,71.124 16.000,70.950 16.000 C 70.776 16.000,70.397 16.103,70.109 16.230 C 69.820 16.356,69.208 16.591,68.750 16.752 C 61.862 19.168,55.293 22.494,48.833 26.835 C 48.696 26.928,48.058 27.377,47.417 27.833 C 46.775 28.290,46.112 28.758,45.943 28.873 C 45.774 28.989,45.446 29.243,45.215 29.439 L 44.795 29.794 44.939 42.920 L 45.083 56.047 54.583 56.006 C 65.390 55.959,65.959 55.941,66.320 55.636 C 66.947 55.107,70.390 52.905,71.776 52.147 C 80.360 47.455,89.787 44.985,98.248 45.212 C 99.899 45.256,101.400 45.330,101.583 45.375 C 101.767 45.421,102.367 45.510,102.917 45.574 C 105.827 45.910,111.788 47.619,114.949 49.023 C 115.334 49.194,115.685 49.333,115.729 49.333 C 116.169 49.333,122.175 52.364,124.522 53.771 C 125.038 54.080,125.544 54.333,125.647 54.333 C 125.749 54.333,125.833 54.408,125.833 54.500 C 125.833 54.592,125.899 54.667,125.980 54.667 C 126.119 54.667,129.396 56.654,129.750 56.953 C 129.842 57.031,130.217 57.277,130.583 57.500 C 130.950 57.723,131.325 57.971,131.417 58.050 C 131.508 58.129,132.446 58.794,133.500 59.527 C 134.554 60.260,135.540 60.971,135.692 61.107 C 136.136 61.507,136.134 61.581,135.971 49.440 C 135.884 43.037,135.837 37.774,135.866 37.745 C 135.895 37.716,141.264 37.638,147.798 37.571 C 154.332 37.504,159.656 37.390,159.630 37.318 C 159.581 37.179,158.205 36.078,156.311 34.661 C 155.886 34.343,155.370 33.971,155.165 33.833 C 154.960 33.696,154.708 33.505,154.605 33.410 C 154.501 33.315,153.817 32.828,153.083 32.328 C 152.350 31.829,151.712 31.381,151.667 31.333 C 151.621 31.285,151.135 30.947,150.586 30.581 C 150.038 30.216,149.513 29.857,149.420 29.785 C 149.326 29.712,148.688 29.291,148.000 28.848 C 144.521 26.610,143.543 26.000,143.431 26.000 C 143.365 26.000,142.983 25.775,142.583 25.500 C 142.184 25.225,141.826 25.000,141.789 25.000 C 141.752 25.000,140.799 24.473,139.671 23.829 C 138.016 22.884,132.207 19.953,130.750 19.328 C 130.567 19.249,130.042 19.027,129.583 18.833 C 129.125 18.640,128.600 18.415,128.417 18.333 C 126.631 17.538,125.457 17.094,122.250 16.004 C 117.845 14.507,115.222 13.811,110.250 12.821 C 108.761 12.525,106.700 12.263,102.536 11.841 C 100.551 11.639,94.111 11.646,91.917 11.852 M98.640 24.762 C 101.751 26.060,101.938 31.394,98.927 32.955 C 98.073 33.398,97.324 33.495,95.606 33.385 L 93.963 33.281 94.067 31.015 C 94.124 29.769,94.217 27.746,94.274 26.518 L 94.376 24.286 96.203 24.397 C 97.207 24.458,98.304 24.622,98.640 24.762 M90.337 25.216 C 93.233 26.747,93.298 32.267,90.436 33.600 C 87.455 34.988,84.833 32.779,84.833 28.878 C 84.833 25.707,87.682 23.812,90.337 25.216 M107.083 25.656 L 109.417 26.100 109.364 26.758 C 109.290 27.686,109.293 27.685,107.167 27.252 C 106.112 27.037,105.225 26.887,105.194 26.918 C 105.100 27.011,104.842 28.227,104.837 28.597 C 104.834 28.906,105.018 28.978,106.518 29.253 L 108.202 29.562 108.115 30.212 C 107.999 31.079,108.042 31.064,106.556 30.765 C 104.306 30.313,104.472 30.261,104.238 31.500 C 103.990 32.812,103.896 32.720,105.833 33.075 C 108.365 33.538,108.149 33.422,107.970 34.216 C 107.885 34.596,107.796 34.926,107.773 34.949 C 107.716 35.006,102.009 33.899,101.933 33.816 C 101.900 33.780,102.257 31.776,102.727 29.364 L 103.582 24.978 104.166 25.095 C 104.487 25.159,105.800 25.412,107.083 25.656 M298.039 26.167 C 298.039 26.488,298.073 26.619,298.115 26.458 C 298.157 26.298,298.157 26.035,298.115 25.875 C 298.073 25.715,298.039 25.846,298.039 26.167 M299.872 26.167 C 299.872 26.488,299.906 26.619,299.948 26.458 C 299.990 26.298,299.990 26.035,299.948 25.875 C 299.906 25.715,299.872 25.846,299.872 26.167 M292.708 25.948 C 292.869 25.990,293.131 25.990,293.292 25.948 C 293.452 25.906,293.321 25.872,293.000 25.872 C 292.679 25.872,292.548 25.906,292.708 25.948 M96.111 27.857 C 95.867 32.081,95.928 32.257,97.480 31.839 C 100.041 31.149,99.726 26.254,97.107 26.037 L 96.220 25.963 96.111 27.857 M87.559 26.654 C 86.326 27.406,86.411 30.752,87.694 31.946 C 88.953 33.118,90.667 32.107,90.667 30.191 C 90.667 27.267,89.232 25.634,87.559 26.654 M81.673 26.837 C 82.377 27.196,83.324 28.423,83.068 28.645 C 82.637 29.021,81.448 29.199,81.288 28.913 C 80.519 27.538,78.416 27.820,78.081 29.343 C 77.832 30.479,78.816 33.254,79.693 33.889 C 80.621 34.560,82.233 33.746,82.233 32.608 C 82.233 32.028,82.265 31.996,83.070 31.760 C 85.333 31.097,84.034 34.599,81.709 35.429 C 78.831 36.456,76.257 34.010,76.259 30.250 C 76.261 27.368,79.147 25.548,81.673 26.837 M348.833 28.746 C 348.833 28.892,349.127 30.677,349.486 32.714 C 349.845 34.750,350.599 39.079,351.161 42.333 C 351.723 45.587,352.288 48.813,352.415 49.500 C 352.543 50.188,352.694 51.061,352.752 51.442 L 352.857 52.133 352.137 52.244 C 351.741 52.305,350.817 52.463,350.083 52.595 C 348.119 52.950,337.976 54.711,333.750 55.432 C 331.733 55.776,330.053 56.081,330.015 56.111 C 329.941 56.169,330.006 56.227,331.944 57.831 C 333.500 59.118,337.393 62.977,338.672 64.500 C 339.172 65.096,339.625 65.621,339.679 65.667 C 339.798 65.767,342.314 69.134,342.667 69.664 C 342.804 69.870,343.108 70.312,343.342 70.645 C 344.520 72.320,348.000 78.604,348.000 79.057 C 348.000 79.105,348.215 79.617,348.478 80.197 C 349.581 82.625,350.733 86.204,351.580 89.833 C 352.102 92.069,352.816 98.267,352.827 100.669 C 352.843 103.905,351.940 111.122,351.179 113.833 C 351.089 114.154,350.891 114.867,350.738 115.417 C 350.248 117.179,349.810 118.575,349.653 118.873 C 349.569 119.032,349.500 119.246,349.500 119.348 C 349.500 119.450,349.393 119.769,349.261 120.058 C 349.130 120.347,348.750 121.258,348.418 122.083 C 348.085 122.908,347.517 124.188,347.155 124.927 L 346.496 126.270 346.738 128.427 C 347.292 133.367,348.210 141.488,348.593 144.833 C 348.819 146.804,349.082 149.204,349.177 150.167 C 349.450 152.911,349.355 152.730,350.467 152.609 C 350.989 152.551,354.379 152.171,358.000 151.763 C 361.621 151.355,366.008 150.862,367.750 150.669 C 371.619 150.239,371.140 150.430,372.000 148.975 C 372.398 148.301,372.786 147.725,372.862 147.694 C 372.938 147.664,373.000 147.565,373.000 147.474 C 373.000 147.384,373.225 146.983,373.500 146.583 C 373.775 146.184,374.000 145.820,374.000 145.775 C 374.000 145.730,374.369 145.054,374.821 144.272 C 375.599 142.925,378.667 136.809,378.667 136.605 C 378.667 136.552,378.845 136.113,379.064 135.630 C 379.282 135.146,379.624 134.337,379.823 133.833 C 380.022 133.329,380.248 132.767,380.325 132.583 C 380.402 132.400,380.703 131.575,380.994 130.750 C 383.460 123.745,384.785 118.102,385.591 111.167 C 386.815 100.650,386.071 89.000,383.587 79.750 C 383.439 79.200,383.245 78.450,383.155 78.083 C 383.065 77.717,382.924 77.229,382.842 77.000 C 382.759 76.771,382.531 76.021,382.334 75.333 C 382.137 74.646,381.914 73.933,381.838 73.750 C 381.762 73.567,381.536 72.929,381.336 72.333 C 381.137 71.737,380.904 71.120,380.820 70.961 C 380.736 70.801,380.666 70.576,380.666 70.461 C 380.665 70.345,380.568 70.063,380.451 69.833 C 380.333 69.604,380.099 69.042,379.931 68.583 C 379.762 68.125,379.409 67.276,379.145 66.697 C 378.882 66.117,378.667 65.607,378.667 65.562 C 378.667 65.425,375.880 59.819,375.239 58.667 C 374.411 57.178,371.964 53.102,371.836 53.000 C 371.779 52.954,371.553 52.617,371.333 52.250 C 371.114 51.883,370.893 51.546,370.842 51.500 C 370.791 51.454,370.342 50.817,369.844 50.083 C 368.986 48.822,367.044 46.180,366.842 46.000 C 366.791 45.954,366.301 45.356,365.754 44.671 C 365.206 43.986,364.644 43.308,364.504 43.164 C 364.364 43.021,363.952 42.531,363.587 42.077 C 362.697 40.966,356.191 34.463,354.833 33.326 C 354.238 32.827,353.712 32.373,353.667 32.318 C 353.547 32.174,351.100 30.210,349.875 29.275 C 349.145 28.718,348.833 28.560,348.833 28.746 M318.500 30.417 C 318.095 30.829,317.801 31.167,317.847 31.167 C 317.893 31.167,318.262 30.829,318.667 30.417 C 319.072 30.004,319.365 29.667,319.319 29.667 C 319.274 29.667,318.905 30.004,318.500 30.417 M297.883 30.667 C 297.883 31.171,297.915 31.377,297.953 31.125 C 297.991 30.873,297.991 30.460,297.953 30.208 C 297.915 29.956,297.883 30.162,297.883 30.667 M312.039 30.333 C 312.039 30.654,312.073 30.785,312.115 30.625 C 312.157 30.465,312.157 30.202,312.115 30.042 C 312.073 29.881,312.039 30.012,312.039 30.333 M299.717 31.500 C 299.717 32.004,299.748 32.210,299.786 31.958 C 299.824 31.706,299.824 31.294,299.786 31.042 C 299.748 30.790,299.717 30.996,299.717 31.500 M319.991 31.458 L 319.417 32.083 320.042 31.509 C 320.623 30.974,320.743 30.833,320.616 30.833 C 320.588 30.833,320.307 31.115,319.991 31.458 M301.375 33.286 C 301.627 33.324,302.040 33.324,302.292 33.286 C 302.544 33.248,302.337 33.217,301.833 33.217 C 301.329 33.217,301.123 33.248,301.375 33.286 M301.375 34.786 C 301.627 34.824,302.040 34.824,302.292 34.786 C 302.544 34.748,302.337 34.717,301.833 34.717 C 301.329 34.717,301.123 34.748,301.375 34.786 M246.333 49.611 C 245.607 49.660,237.916 49.954,226.917 50.354 L 221.583 50.548 220.421 51.478 C 219.782 51.990,219.139 52.523,218.994 52.662 C 218.848 52.802,218.022 53.552,217.156 54.328 C 216.291 55.105,215.058 56.224,214.417 56.816 C 212.583 58.506,198.112 73.068,197.307 74.033 C 196.624 74.850,193.692 77.994,184.747 87.500 C 182.634 89.746,179.681 92.896,178.185 94.500 C 176.688 96.104,174.966 97.908,174.357 98.509 C 173.748 99.110,172.425 100.496,171.417 101.590 C 170.408 102.684,169.171 104.024,168.667 104.569 C 168.162 105.114,167.637 105.683,167.500 105.834 C 166.012 107.471,163.858 109.820,162.917 110.834 C 162.275 111.525,160.925 112.988,159.917 114.085 C 158.908 115.182,157.558 116.640,156.917 117.324 C 156.275 118.008,155.675 118.654,155.583 118.759 C 154.170 120.381,145.212 129.744,141.980 132.979 C 139.391 135.568,135.340 139.426,133.938 140.635 C 133.106 141.353,132.200 141.157,140.250 142.004 C 141.992 142.187,144.429 142.445,145.667 142.577 C 146.904 142.710,149.132 142.947,150.618 143.105 L 153.319 143.392 153.242 144.071 C 153.127 145.083,152.712 148.926,152.422 151.667 C 152.282 152.996,151.833 157.233,151.426 161.083 C 150.263 172.075,150.213 170.808,151.762 169.493 C 152.135 169.176,152.624 168.767,152.847 168.583 C 154.934 166.875,156.263 165.691,160.239 162.000 C 161.671 160.670,169.830 152.511,172.000 150.239 C 174.435 147.688,176.550 145.449,178.833 143.003 C 179.979 141.775,181.029 140.651,181.167 140.504 C 181.304 140.356,182.167 139.419,183.083 138.421 C 184.000 137.423,184.938 136.407,185.167 136.163 C 185.803 135.486,188.543 132.493,188.889 132.099 C 189.159 131.791,192.009 128.701,192.667 128.004 C 192.804 127.858,193.554 127.029,194.333 126.161 C 195.112 125.293,195.844 124.523,195.958 124.450 C 196.073 124.377,196.167 124.232,196.167 124.128 C 196.167 124.024,196.748 123.332,197.458 122.590 C 199.487 120.472,200.573 119.312,209.248 110.000 C 214.032 104.864,220.709 97.946,225.412 93.250 C 233.334 85.340,234.373 84.327,238.572 80.417 C 239.753 79.317,241.198 77.949,241.784 77.378 C 242.370 76.807,243.539 75.727,244.383 74.979 C 245.226 74.231,245.967 73.573,246.028 73.517 C 246.089 73.462,246.218 72.629,246.315 71.667 C 246.411 70.704,246.605 68.848,246.745 67.542 C 247.230 63.024,247.492 60.564,247.990 55.833 C 248.266 53.221,248.538 50.727,248.595 50.292 L 248.698 49.500 247.891 49.530 C 247.447 49.547,246.746 49.583,246.333 49.611 M159.250 52.667 C 159.794 53.217,160.277 53.667,160.323 53.667 C 160.369 53.667,159.961 53.217,159.417 52.667 C 158.872 52.117,158.390 51.667,158.344 51.667 C 158.298 51.667,158.706 52.117,159.250 52.667 M156.079 53.708 L 154.750 55.083 156.125 53.754 C 157.402 52.519,157.576 52.333,157.454 52.333 C 157.429 52.333,156.811 52.952,156.079 53.708 M157.160 56.708 C 157.568 57.144,157.925 57.500,157.951 57.500 C 158.077 57.500,157.944 57.350,157.208 56.660 L 156.417 55.917 157.160 56.708 M154.211 58.035 L 153.176 59.071 152.630 58.581 L 152.083 58.091 152.626 58.668 L 153.168 59.245 154.291 58.123 C 154.908 57.505,155.376 57.000,155.330 57.000 C 155.284 57.000,154.781 57.466,154.211 58.035 M162.329 58.958 L 161.250 60.083 162.375 59.005 C 162.994 58.412,163.500 57.905,163.500 57.880 C 163.500 57.757,163.330 57.913,162.329 58.958 M160.584 63.166 C 159.906 63.854,159.803 64.034,159.990 64.207 C 160.172 64.376,160.191 64.374,160.088 64.192 C 160.004 64.044,160.232 63.692,160.766 63.151 C 161.209 62.701,161.533 62.333,161.487 62.333 C 161.442 62.333,161.035 62.708,160.584 63.166 M159.917 66.333 C 160.646 67.067,161.280 67.667,161.326 67.667 C 161.371 67.667,160.812 67.067,160.083 66.333 C 159.354 65.600,158.720 65.000,158.674 65.000 C 158.629 65.000,159.188 65.600,159.917 66.333 M161.932 68.142 C 161.883 68.221,162.048 68.465,162.297 68.684 L 162.750 69.083 162.373 68.654 C 162.166 68.418,162.048 68.175,162.110 68.113 C 162.172 68.051,162.177 68.000,162.121 68.000 C 162.065 68.000,161.980 68.064,161.932 68.142 M366.130 68.426 C 368.541 69.433,369.161 72.358,367.382 74.336 C 364.257 77.812,358.973 76.479,359.373 72.315 C 359.629 69.647,363.593 67.366,366.130 68.426 M166.167 70.083 C 166.665 70.587,167.109 71.000,167.155 71.000 C 167.201 71.000,166.831 70.587,166.333 70.083 C 165.835 69.579,165.391 69.167,165.345 69.167 C 165.299 69.167,165.669 69.579,166.167 70.083 M364.580 69.963 C 363.039 70.122,361.000 71.817,361.000 72.939 C 361.000 75.006,364.700 74.955,366.344 72.865 C 367.471 71.432,366.460 69.769,364.580 69.963 M170.161 72.958 L 169.250 73.917 170.208 73.006 C 170.735 72.505,171.167 72.073,171.167 72.047 C 171.167 71.924,171.007 72.068,170.161 72.958 M177.742 73.208 L 177.083 73.917 177.789 73.260 L 178.495 72.604 178.956 73.010 L 179.417 73.417 179.013 72.958 C 178.498 72.375,178.522 72.370,177.742 73.208 M166.953 73.501 C 167.339 73.904,167.681 74.200,167.713 74.158 C 167.745 74.117,167.429 73.788,167.011 73.426 L 166.250 72.769 166.953 73.501 M176.746 76.708 L 175.417 78.083 176.792 76.754 C 177.548 76.023,178.167 75.404,178.167 75.379 C 178.167 75.257,177.981 75.431,176.746 76.708 M371.220 77.708 C 372.354 81.160,372.080 82.496,370.080 83.260 C 368.185 83.984,366.789 83.014,365.926 80.375 C 365.769 79.894,365.622 79.500,365.601 79.500 C 365.580 79.500,364.907 79.721,364.106 79.992 C 363.064 80.345,362.630 80.427,362.578 80.284 C 362.538 80.174,362.397 79.769,362.264 79.385 L 362.022 78.687 366.219 77.273 C 368.528 76.496,370.459 75.854,370.510 75.846 C 370.561 75.839,370.881 76.677,371.220 77.708 M368.333 78.573 C 367.095 79.008,367.046 79.150,367.648 80.544 C 368.622 82.803,370.808 81.452,370.053 79.056 C 369.735 78.047,369.788 78.062,368.333 78.573 M172.500 79.250 C 172.811 79.571,173.103 79.833,173.149 79.833 C 173.195 79.833,172.978 79.571,172.667 79.250 C 172.356 78.929,172.064 78.667,172.018 78.667 C 171.972 78.667,172.189 78.929,172.500 79.250 M208.087 82.503 L 208.569 83.007 207.201 84.382 C 205.610 85.981,205.626 85.926,206.526 86.734 L 207.219 87.356 208.492 86.091 L 209.764 84.826 210.239 85.322 L 210.714 85.817 209.875 86.784 C 209.415 87.315,208.877 87.895,208.680 88.072 L 208.323 88.395 209.113 89.197 C 210.109 90.208,209.929 90.255,211.578 88.542 L 212.981 87.083 213.508 87.604 L 214.034 88.124 211.954 90.268 L 209.873 92.413 209.062 91.673 C 208.615 91.265,207.150 89.879,205.806 88.591 L 203.361 86.250 205.364 84.125 C 207.628 81.724,207.444 81.833,208.087 82.503 M27.211 83.120 C 27.464 83.158,27.839 83.157,28.044 83.117 C 28.249 83.078,28.042 83.046,27.583 83.048 C 27.125 83.049,26.957 83.081,27.211 83.120 M373.732 87.125 C 373.987 88.569,374.232 89.911,374.278 90.108 C 374.350 90.418,374.268 90.482,373.660 90.584 C 372.787 90.732,372.808 90.768,372.417 88.503 C 372.243 87.493,372.052 86.667,371.994 86.667 C 371.100 86.667,370.013 87.082,370.079 87.398 C 370.394 88.894,370.662 90.394,370.622 90.434 C 370.595 90.460,370.263 90.552,369.884 90.637 L 369.194 90.792 368.930 89.354 C 368.785 88.564,368.666 87.778,368.666 87.609 C 368.667 87.297,367.756 87.312,366.604 87.642 L 366.227 87.750 366.594 89.750 C 367.019 92.061,367.063 91.841,366.163 91.883 L 365.453 91.917 364.923 89.042 C 364.632 87.460,364.399 86.160,364.405 86.152 C 364.422 86.129,372.889 84.536,373.093 84.517 C 373.193 84.507,373.470 85.639,373.732 87.125 M203.875 88.608 C 204.127 88.737,204.333 88.900,204.333 88.970 C 204.333 89.244,203.036 90.360,202.926 90.182 C 202.486 89.469,200.667 90.476,200.667 91.432 C 200.667 92.622,201.307 92.723,203.160 91.827 C 205.799 90.550,207.562 90.965,207.934 92.950 C 208.424 95.560,203.555 98.626,202.264 96.521 C 201.996 96.086,203.309 95.136,203.889 95.346 C 205.242 95.835,206.929 94.095,206.000 93.167 C 205.521 92.688,204.985 92.751,203.621 93.450 C 201.971 94.295,200.467 94.349,199.677 93.593 C 197.388 91.402,200.985 87.131,203.875 88.608 M374.560 93.125 C 374.723 94.111,374.682 96.688,374.493 97.370 C 373.937 99.372,371.405 99.997,369.969 98.488 L 369.355 97.842 367.679 98.796 C 366.336 99.561,366.052 99.786,366.247 99.932 C 366.381 100.032,368.251 101.044,370.403 102.181 L 374.316 104.248 374.220 104.999 C 374.079 106.098,374.656 105.868,368.583 107.250 C 366.750 107.667,365.122 108.048,364.965 108.097 C 364.713 108.175,364.691 108.082,364.777 107.301 C 364.889 106.274,365.078 106.076,366.090 105.924 C 366.670 105.837,366.850 105.734,366.912 105.448 C 367.019 104.963,367.325 102.597,367.283 102.582 C 366.584 102.334,365.596 101.679,365.640 101.492 C 365.672 101.359,365.692 100.484,365.686 99.547 L 365.674 97.844 367.253 96.964 L 368.833 96.083 368.833 95.381 L 368.833 94.679 367.208 94.631 L 365.583 94.583 365.533 93.708 C 365.484 92.853,365.493 92.833,365.950 92.811 C 366.206 92.799,367.879 92.738,369.667 92.675 C 371.454 92.612,373.263 92.547,373.687 92.530 C 374.454 92.500,374.457 92.502,374.560 93.125 M30.039 95.000 C 30.039 95.321,30.073 95.452,30.115 95.292 C 30.157 95.131,30.157 94.869,30.115 94.708 C 30.073 94.548,30.039 94.679,30.039 95.000 M370.442 95.542 C 370.568 96.801,370.722 97.133,371.282 97.346 C 372.466 97.796,373.387 96.645,373.094 95.083 L 372.985 94.500 371.662 94.500 L 370.338 94.500 370.442 95.542 M199.732 96.848 L 203.881 98.629 203.203 99.355 L 202.525 100.082 201.613 99.635 L 200.701 99.187 199.600 100.328 C 198.416 101.554,198.439 101.448,199.081 102.714 L 199.400 103.345 198.710 104.036 L 198.019 104.726 197.275 103.155 C 196.865 102.291,195.926 100.347,195.187 98.835 L 193.844 96.086 194.443 95.473 C 194.839 95.067,195.133 94.895,195.312 94.964 C 195.461 95.021,197.450 95.869,199.732 96.848 M22.566 95.236 C 22.516 95.366,22.507 95.684,22.546 95.944 C 22.607 96.349,22.620 96.328,22.642 95.803 C 22.663 95.269,22.726 95.180,23.125 95.119 L 23.583 95.050 23.120 95.025 C 22.855 95.011,22.617 95.101,22.566 95.236 M25.625 95.284 C 25.831 95.324,26.169 95.324,26.375 95.284 C 26.581 95.245,26.412 95.212,26.000 95.212 C 25.587 95.212,25.419 95.245,25.625 95.284 M31.545 95.833 C 31.545 96.246,31.578 96.415,31.618 96.208 C 31.657 96.002,31.657 95.665,31.618 95.458 C 31.578 95.252,31.545 95.421,31.545 95.833 M28.375 95.453 C 28.627 95.491,29.040 95.491,29.292 95.453 C 29.544 95.415,29.337 95.383,28.833 95.383 C 28.329 95.383,28.123 95.415,28.375 95.453 M24.542 97.115 C 24.702 97.157,24.965 97.157,25.125 97.115 C 25.285 97.073,25.154 97.039,24.833 97.039 C 24.512 97.039,24.381 97.073,24.542 97.115 M27.461 97.287 C 27.761 97.325,28.211 97.324,28.461 97.286 C 28.712 97.248,28.467 97.217,27.917 97.218 C 27.367 97.219,27.162 97.250,27.461 97.287 M196.948 98.659 L 197.750 100.151 198.305 99.617 C 199.361 98.602,199.350 98.564,197.776 97.827 C 197.002 97.464,196.318 97.167,196.257 97.167 C 196.197 97.167,196.508 97.838,196.948 98.659 M30.294 97.451 C 30.501 97.491,30.801 97.490,30.960 97.448 C 31.120 97.406,30.950 97.374,30.583 97.375 C 30.217 97.377,30.086 97.411,30.294 97.451 M29.125 98.954 C 29.423 98.991,29.910 98.991,30.208 98.954 C 30.506 98.917,30.262 98.887,29.667 98.887 C 29.071 98.887,28.827 98.917,29.125 98.954 M31.542 99.417 C 31.544 99.783,31.578 99.914,31.618 99.706 C 31.658 99.499,31.656 99.199,31.615 99.040 C 31.573 98.880,31.540 99.050,31.542 99.417 M191.920 99.337 L 192.403 99.841 190.952 101.298 L 189.501 102.755 190.288 103.542 L 191.075 104.329 192.274 103.040 L 193.473 101.750 194.005 102.272 L 194.537 102.793 193.335 104.059 L 192.133 105.324 193.025 106.152 L 193.917 106.981 195.333 105.476 L 196.750 103.971 197.227 104.472 C 197.840 105.117,197.913 104.989,195.592 107.333 L 193.601 109.344 192.009 107.797 C 191.133 106.947,189.691 105.544,188.803 104.681 L 187.190 103.112 189.205 100.973 C 191.489 98.548,191.283 98.672,191.920 99.337 M25.794 99.118 C 26.001 99.158,26.301 99.156,26.460 99.115 C 26.620 99.073,26.450 99.040,26.083 99.042 C 25.717 99.044,25.586 99.078,25.794 99.118 M22.528 99.875 L 22.556 100.583 22.621 99.969 C 22.671 99.495,22.770 99.338,23.051 99.283 C 23.353 99.224,23.337 99.208,22.958 99.189 C 22.523 99.168,22.501 99.202,22.528 99.875 M30.295 100.787 C 30.594 100.825,31.044 100.824,31.295 100.786 C 31.545 100.748,31.300 100.717,30.750 100.718 C 30.200 100.719,29.995 100.750,30.295 100.787 M27.044 100.953 C 27.297 100.991,27.672 100.990,27.877 100.951 C 28.082 100.911,27.875 100.880,27.417 100.881 C 26.958 100.882,26.791 100.915,27.044 100.953 M23.627 101.118 C 23.834 101.158,24.134 101.156,24.294 101.115 C 24.453 101.073,24.283 101.040,23.917 101.042 C 23.550 101.044,23.420 101.078,23.627 101.118 M29.042 102.615 C 29.202 102.657,29.465 102.657,29.625 102.615 C 29.785 102.573,29.654 102.539,29.333 102.539 C 29.012 102.539,28.881 102.573,29.042 102.615 M368.607 104.361 C 368.477 105.606,368.351 105.511,369.750 105.231 C 371.957 104.790,371.910 104.883,370.333 104.076 C 369.554 103.677,368.871 103.346,368.815 103.342 C 368.760 103.337,368.666 103.796,368.607 104.361 M32.379 106.333 C 32.379 106.746,32.411 106.915,32.451 106.708 C 32.491 106.502,32.491 106.165,32.451 105.958 C 32.411 105.752,32.379 105.921,32.379 106.333 M190.501 110.540 C 191.952 108.993,191.944 108.997,192.537 109.625 L 192.969 110.083 190.989 112.144 L 189.009 114.204 188.472 113.752 C 188.176 113.503,186.696 112.108,185.182 110.651 L 182.430 108.002 183.076 107.340 L 183.723 106.679 186.468 109.296 L 189.213 111.914 190.501 110.540 M182.251 109.334 L 182.731 109.835 182.159 110.459 C 181.845 110.802,181.215 111.477,180.759 111.957 L 179.930 112.831 180.582 113.499 C 181.432 114.369,181.452 114.365,182.716 113.000 C 183.950 111.667,183.908 111.683,184.536 112.284 L 185.007 112.736 183.752 113.998 L 182.498 115.259 183.386 116.136 L 184.273 117.013 185.742 115.490 L 187.210 113.967 187.714 114.471 L 188.218 114.975 186.169 117.151 L 184.120 119.327 183.518 118.801 C 182.093 117.555,177.668 113.236,177.668 113.090 C 177.667 112.937,181.485 108.905,181.677 108.857 C 181.729 108.844,181.987 109.059,182.251 109.334 M373.371 110.106 C 373.308 110.546,371.530 116.692,371.440 116.782 C 371.372 116.850,370.000 116.533,370.000 116.449 C 370.000 116.427,370.153 115.856,370.341 115.179 C 370.759 113.670,371.059 113.893,367.104 112.780 C 365.283 112.267,363.756 111.812,363.713 111.768 C 363.607 111.662,363.814 110.467,363.987 110.187 C 364.112 109.986,366.393 110.551,371.042 111.936 C 371.207 111.985,371.333 111.935,371.333 111.821 C 371.333 111.710,371.484 111.113,371.668 110.494 L 372.003 109.369 372.710 109.580 C 373.252 109.741,373.406 109.863,373.371 110.106 M25.205 114.333 C 25.205 114.654,25.240 114.785,25.282 114.625 C 25.323 114.465,25.323 114.202,25.282 114.042 C 25.240 113.881,25.205 114.013,25.205 114.333 M26.872 114.833 C 26.872 115.154,26.906 115.285,26.948 115.125 C 26.990 114.965,26.990 114.702,26.948 114.542 C 26.906 114.381,26.872 114.513,26.872 114.833 M366.750 116.910 C 368.767 117.798,370.478 118.584,370.552 118.656 C 370.659 118.760,368.537 123.852,368.280 124.109 C 368.245 124.144,367.910 124.036,367.537 123.868 L 366.857 123.564 367.571 121.990 C 368.636 119.643,368.635 119.813,367.574 119.352 C 367.069 119.133,366.635 118.983,366.609 119.019 C 366.582 119.054,366.271 119.744,365.917 120.551 C 365.161 122.272,365.248 122.194,364.468 121.842 L 363.853 121.565 364.580 119.951 L 365.307 118.337 364.538 117.997 C 363.048 117.338,363.161 117.272,362.254 119.324 C 361.806 120.337,361.418 121.167,361.392 121.167 C 361.152 121.167,360.167 120.562,360.167 120.414 C 360.167 120.310,360.585 119.292,361.097 118.154 C 361.609 117.015,362.132 115.836,362.259 115.533 C 362.449 115.082,362.543 115.011,362.787 115.140 C 362.950 115.226,364.733 116.023,366.750 116.910 M177.680 115.442 C 178.717 115.856,179.333 116.804,179.333 117.984 L 179.333 118.918 181.348 119.483 L 183.363 120.049 182.623 120.789 L 181.883 121.530 180.215 121.015 C 178.177 120.386,178.271 120.386,177.823 121.015 L 177.456 121.530 178.599 122.683 L 179.743 123.835 179.080 124.490 L 178.417 125.145 175.185 122.025 L 171.953 118.906 173.351 117.427 C 175.305 115.361,176.318 114.896,177.680 115.442 M175.152 117.780 L 174.319 118.559 175.276 119.526 C 176.357 120.619,176.369 120.617,177.358 119.267 C 178.636 117.520,176.773 116.264,175.152 117.780 M323.875 163.448 C 324.035 163.490,324.298 163.490,324.458 163.448 C 324.619 163.406,324.487 163.372,324.167 163.372 C 323.846 163.372,323.715 163.406,323.875 163.448 M286.877 167.620 C 287.131 167.658,287.506 167.657,287.711 167.617 C 287.916 167.578,287.708 167.546,287.250 167.548 C 286.792 167.549,286.624 167.581,286.877 167.620 M276.730 169.750 C 276.731 170.850,276.758 171.278,276.790 170.702 C 276.823 170.125,276.823 169.225,276.790 168.702 C 276.757 168.178,276.730 168.650,276.730 169.750 M292.503 168.792 C 292.504 168.986,292.547 169.017,292.630 168.886 C 292.699 168.778,293.092 168.660,293.503 168.624 L 294.250 168.558 293.375 168.529 C 292.641 168.505,292.500 168.547,292.503 168.792 M301.278 168.778 C 301.217 168.839,301.168 168.970,301.169 169.069 C 301.171 169.188,301.214 169.184,301.295 169.057 C 301.362 168.950,301.643 168.830,301.917 168.790 L 302.417 168.717 301.903 168.692 C 301.620 168.678,301.339 168.717,301.278 168.778 M298.833 168.898 C 298.833 168.934,299.091 168.994,299.405 169.030 C 299.719 169.067,299.940 169.038,299.895 168.965 C 299.814 168.835,298.833 168.773,298.833 168.898 M275.230 170.917 C 275.231 172.017,275.258 172.445,275.290 171.868 C 275.323 171.292,275.323 170.392,275.290 169.868 C 275.257 169.345,275.230 169.817,275.230 170.917 M297.879 170.333 C 297.879 170.746,297.911 170.915,297.951 170.708 C 297.991 170.502,297.991 170.165,297.951 169.958 C 297.911 169.752,297.879 169.921,297.879 170.333 M303.205 170.833 C 303.205 171.154,303.240 171.285,303.282 171.125 C 303.323 170.965,303.323 170.702,303.282 170.542 C 303.240 170.381,303.205 170.512,303.205 170.833 M292.379 171.167 C 292.379 171.579,292.411 171.748,292.451 171.542 C 292.491 171.335,292.491 170.998,292.451 170.792 C 292.411 170.585,292.379 170.754,292.379 171.167 M101.461 170.787 C 101.761 170.825,102.211 170.824,102.461 170.786 C 102.712 170.748,102.467 170.717,101.917 170.718 C 101.367 170.719,101.162 170.750,101.461 170.787 M299.705 171.500 C 299.705 171.821,299.740 171.952,299.782 171.792 C 299.823 171.631,299.823 171.369,299.782 171.208 C 299.740 171.048,299.705 171.179,299.705 171.500 M301.381 172.083 C 301.382 172.542,301.415 172.709,301.453 172.456 C 301.491 172.203,301.490 171.828,301.451 171.623 C 301.411 171.418,301.380 171.625,301.381 172.083 M318.209 172.083 C 318.211 172.450,318.245 172.580,318.285 172.373 C 318.324 172.166,318.323 171.866,318.281 171.706 C 318.239 171.547,318.207 171.717,318.209 172.083 M294.167 172.417 C 294.167 172.646,294.195 172.833,294.231 172.833 C 294.266 172.833,294.330 172.646,294.374 172.417 C 294.418 172.188,294.389 172.000,294.310 172.000 C 294.231 172.000,294.167 172.188,294.167 172.417 M297.705 173.500 C 297.705 173.821,297.740 173.952,297.782 173.792 C 297.823 173.631,297.823 173.369,297.782 173.208 C 297.740 173.048,297.705 173.179,297.705 173.500 M303.387 174.333 C 303.387 174.929,303.417 175.173,303.454 174.875 C 303.491 174.577,303.491 174.090,303.454 173.792 C 303.417 173.494,303.387 173.737,303.387 174.333 M292.205 174.333 C 292.205 174.654,292.240 174.785,292.282 174.625 C 292.323 174.465,292.323 174.202,292.282 174.042 C 292.240 173.881,292.205 174.012,292.205 174.333 M299.545 174.667 C 299.545 175.079,299.578 175.248,299.618 175.042 C 299.657 174.835,299.657 174.498,299.618 174.292 C 299.578 174.085,299.545 174.254,299.545 174.667 M96.461 174.287 C 96.761 174.325,97.211 174.324,97.461 174.286 C 97.712 174.248,97.467 174.217,96.917 174.218 C 96.367 174.219,96.162 174.250,96.461 174.287 M287.949 174.755 C 287.692 174.982,287.548 175.167,287.628 175.167 C 287.709 175.167,287.951 174.979,288.167 174.750 C 288.665 174.220,288.555 174.222,287.949 174.755 M301.552 175.417 C 301.553 175.967,301.584 176.172,301.621 175.872 C 301.658 175.572,301.657 175.122,301.619 174.872 C 301.581 174.622,301.551 174.867,301.552 175.417 M294.045 175.500 C 294.045 175.912,294.078 176.081,294.118 175.875 C 294.157 175.669,294.157 175.331,294.118 175.125 C 294.078 174.919,294.045 175.088,294.045 175.500 M315.958 175.618 C 316.165 175.657,316.502 175.657,316.708 175.618 C 316.915 175.578,316.746 175.545,316.333 175.545 C 315.921 175.545,315.752 175.578,315.958 175.618 M292.067 177.167 C 292.082 177.551,292.148 177.585,292.917 177.600 L 293.750 177.617 292.969 177.550 C 292.322 177.494,292.175 177.419,292.119 177.116 C 292.063 176.813,292.054 176.822,292.067 177.167 M309.500 176.806 C 309.500 176.912,309.331 177.009,309.125 177.019 C 308.816 177.035,308.805 177.053,309.059 177.118 C 309.392 177.204,309.802 176.913,309.614 176.725 C 309.551 176.662,309.500 176.699,309.500 176.806 M299.356 177.279 C 299.341 177.631,299.235 177.835,299.042 177.885 C 298.768 177.957,298.769 177.963,299.047 177.981 C 299.398 178.003,299.555 177.676,299.453 177.137 C 299.395 176.836,299.374 176.867,299.356 177.279 M301.960 177.785 C 302.168 177.824,302.468 177.823,302.627 177.781 C 302.786 177.739,302.617 177.707,302.250 177.709 C 301.883 177.711,301.753 177.745,301.960 177.785 " stroke="none" fill="#8bc3eb" fill-rule="evenodd"></path><path id="path3" d="M44.162 30.208 C 43.942 30.415,43.367 30.891,42.884 31.267 C 40.515 33.111,34.635 38.818,32.425 41.417 C 31.802 42.150,31.116 42.953,30.902 43.200 C 30.687 43.448,29.797 44.610,28.924 45.784 C 28.051 46.957,27.277 47.992,27.205 48.083 C 27.082 48.239,26.416 49.253,24.741 51.833 C 23.139 54.302,20.530 59.316,19.191 62.500 C 18.709 63.646,18.246 64.733,18.162 64.917 C 15.846 69.982,13.379 79.923,12.411 88.083 C 11.834 92.952,11.623 103.072,12.001 107.750 C 12.483 113.718,13.379 119.171,14.671 124.000 C 14.953 125.054,15.260 126.217,15.352 126.583 C 15.691 127.926,17.695 133.758,18.159 134.750 C 18.540 135.563,19.000 136.657,19.000 136.748 C 19.000 137.183,22.723 144.543,23.525 145.692 C 23.694 145.936,23.833 146.182,23.833 146.240 C 23.833 146.414,26.850 151.149,27.250 151.603 C 27.342 151.707,27.529 151.959,27.667 152.162 C 28.374 153.207,28.606 153.418,29.083 153.454 C 35.429 153.934,42.341 154.485,43.250 154.584 C 43.708 154.634,45.058 154.747,46.250 154.835 C 50.635 155.159,54.773 155.496,55.625 155.599 C 56.106 155.657,56.500 155.678,56.501 155.644 C 56.503 155.561,56.955 149.906,57.253 146.250 C 57.388 144.600,57.612 141.769,57.751 139.960 L 58.005 136.669 57.034 135.460 C 56.500 134.794,55.805 133.876,55.490 133.419 C 55.175 132.962,54.842 132.496,54.750 132.383 C 54.658 132.270,54.505 132.082,54.409 131.964 C 53.663 131.046,51.034 126.294,50.096 124.167 C 49.151 122.025,49.065 121.817,48.756 120.917 C 48.599 120.458,48.412 119.968,48.340 119.828 C 48.268 119.687,48.152 119.315,48.083 119.000 C 48.014 118.685,47.897 118.313,47.824 118.172 C 47.750 118.032,47.617 117.617,47.527 117.250 C 47.438 116.883,47.216 116.018,47.032 115.328 C 46.725 114.169,46.219 111.723,45.828 109.500 C 44.607 102.566,45.153 91.594,47.085 84.250 C 47.230 83.700,47.424 82.950,47.517 82.583 C 48.238 79.742,50.697 73.862,52.082 71.668 C 52.312 71.304,52.500 70.945,52.500 70.871 C 52.500 70.569,55.941 65.598,56.821 64.628 C 56.965 64.469,57.346 64.008,57.667 63.602 C 57.987 63.196,59.262 61.862,60.500 60.636 C 62.397 58.758,63.223 58.014,64.583 56.959 C 64.675 56.888,65.012 56.599,65.333 56.318 L 65.917 55.805 64.917 55.899 C 64.367 55.950,59.679 56.005,54.500 56.020 L 45.083 56.047 44.982 48.315 C 44.926 44.063,44.870 38.165,44.857 35.208 C 44.844 32.252,44.772 29.833,44.698 29.833 C 44.624 29.833,44.383 30.002,44.162 30.208 M147.125 37.624 C 147.790 37.655,148.877 37.655,149.542 37.624 C 150.206 37.592,149.662 37.566,148.333 37.566 C 147.004 37.566,146.460 37.592,147.125 37.624 M135.888 41.417 C 135.889 42.058,135.919 42.300,135.955 41.955 C 135.991 41.609,135.990 41.084,135.954 40.788 C 135.917 40.492,135.887 40.775,135.888 41.417 M136.056 57.333 C 136.056 58.021,136.085 58.302,136.121 57.958 C 136.157 57.615,136.157 57.052,136.121 56.708 C 136.085 56.365,136.056 56.646,136.056 57.333 M30.273 83.670 C 32.365 84.691,32.865 86.166,32.224 89.428 C 31.897 91.091,32.270 91.008,28.583 90.240 C 27.025 89.915,25.131 89.533,24.375 89.390 C 23.619 89.247,23.000 89.079,23.000 89.016 C 23.000 88.763,23.673 85.839,23.820 85.452 C 24.665 83.229,27.670 82.399,30.273 83.670 M26.127 85.261 C 25.259 85.732,24.700 87.426,25.363 87.575 C 27.441 88.041,30.732 88.657,30.797 88.592 C 31.170 88.219,30.886 86.447,30.382 85.996 C 29.399 85.116,27.120 84.722,26.127 85.261 M31.794 91.739 C 31.874 91.818,31.538 97.351,31.448 97.441 C 31.408 97.481,29.509 97.398,27.229 97.257 C 24.949 97.116,22.952 97.000,22.792 97.000 C 22.488 97.000,22.336 95.283,22.625 95.112 C 22.694 95.071,24.363 95.128,26.333 95.238 C 30.570 95.473,29.989 95.667,30.096 93.983 C 30.259 91.411,30.246 91.443,31.047 91.571 C 31.427 91.632,31.763 91.708,31.794 91.739 M31.667 99.802 L 31.667 100.771 27.220 100.967 C 24.775 101.075,22.745 101.134,22.710 101.099 C 22.675 101.064,22.604 100.625,22.552 100.123 L 22.458 99.210 25.604 99.050 C 27.334 98.961,29.406 98.876,30.208 98.861 L 31.667 98.833 31.667 99.802 M30.955 103.043 C 32.887 104.346,32.900 108.101,30.974 109.097 C 30.601 109.290,24.591 110.496,23.986 110.499 C 23.847 110.500,23.533 108.666,23.659 108.588 C 23.716 108.553,25.138 108.291,26.818 108.007 C 30.556 107.375,30.833 107.244,30.833 106.102 C 30.833 104.466,30.288 104.329,26.396 104.982 C 24.605 105.283,23.106 105.495,23.063 105.452 C 22.684 105.072,22.743 103.654,23.143 103.553 C 26.826 102.629,30.030 102.420,30.955 103.043 M32.114 110.511 C 32.718 110.739,33.459 111.447,33.760 112.083 C 34.225 113.067,35.165 116.069,35.042 116.179 C 34.917 116.292,26.849 119.000,26.639 119.000 C 26.578 119.000,26.244 118.156,25.897 117.125 C 24.858 114.038,25.081 112.712,26.743 112.077 C 27.475 111.798,27.625 111.810,28.685 112.242 C 28.877 112.320,29.010 112.211,29.158 111.854 C 29.613 110.755,31.043 110.106,32.114 110.511 M30.982 112.519 C 30.254 112.786,30.130 113.326,30.527 114.501 C 30.760 115.192,30.942 115.494,31.092 115.436 C 31.213 115.390,31.598 115.273,31.948 115.176 C 33.017 114.880,33.050 114.828,32.746 113.902 C 32.506 113.169,31.838 112.312,31.532 112.346 C 31.469 112.354,31.221 112.431,30.982 112.519 M27.292 114.013 C 26.869 114.259,27.011 116.281,27.471 116.565 C 27.786 116.760,29.416 116.041,29.368 115.730 C 29.127 114.198,28.238 113.462,27.292 114.013 M345.833 127.527 C 345.512 128.168,345.156 128.770,345.042 128.866 C 344.927 128.962,344.833 129.144,344.833 129.270 C 344.833 129.397,344.758 129.500,344.667 129.500 C 344.575 129.500,344.500 129.591,344.500 129.702 C 344.500 131.042,335.796 141.346,332.667 143.710 C 332.346 143.952,331.521 144.607,330.833 145.165 C 329.615 146.153,325.766 148.833,325.564 148.833 C 325.508 148.833,324.853 149.197,324.106 149.642 C 322.117 150.827,320.184 151.767,317.833 152.692 C 316.688 153.142,315.600 153.576,315.417 153.655 C 313.636 154.421,309.312 155.490,305.917 156.002 C 305.367 156.085,304.617 156.199,304.250 156.255 C 302.956 156.452,298.225 156.582,296.250 156.475 C 294.548 156.383,293.585 156.247,291.061 155.739 C 290.866 155.699,290.003 155.477,289.144 155.245 C 288.286 155.013,287.492 154.803,287.380 154.778 C 287.268 154.752,287.124 154.680,287.060 154.616 C 286.997 154.552,286.782 154.500,286.583 154.500 C 286.385 154.500,286.179 154.457,286.126 154.404 C 286.073 154.351,285.329 154.062,284.473 153.761 C 283.617 153.460,282.330 152.941,281.613 152.607 C 280.896 152.273,280.272 152.000,280.227 152.000 C 280.114 152.000,276.130 150.006,275.000 149.383 C 272.848 148.198,271.105 147.166,269.118 145.898 C 268.128 145.266,267.003 144.552,266.618 144.311 L 265.917 143.872 254.588 144.028 C 248.358 144.114,243.251 144.199,243.240 144.217 C 243.129 144.405,243.540 168.931,243.657 169.072 C 243.743 169.175,244.473 169.704,245.281 170.249 C 246.089 170.793,246.787 171.282,246.833 171.336 C 246.879 171.390,247.217 171.615,247.583 171.837 C 247.950 172.058,248.325 172.303,248.417 172.380 C 248.508 172.457,249.521 173.112,250.667 173.836 C 251.813 174.560,252.897 175.268,253.076 175.409 C 253.255 175.551,253.466 175.667,253.546 175.667 C 253.625 175.667,254.017 175.892,254.417 176.167 C 254.816 176.442,255.183 176.667,255.232 176.667 C 255.281 176.667,255.868 176.997,256.536 177.401 C 258.954 178.863,264.814 181.856,267.345 182.922 C 267.884 183.149,268.721 183.510,269.204 183.724 C 269.688 183.939,270.346 184.213,270.667 184.332 C 270.987 184.452,271.475 184.642,271.750 184.755 C 272.253 184.961,274.675 185.828,275.917 186.246 C 276.283 186.370,277.146 186.633,277.833 186.831 C 278.521 187.029,279.271 187.258,279.500 187.339 C 280.200 187.588,284.659 188.621,286.250 188.904 C 287.075 189.051,288.125 189.242,288.583 189.329 C 291.775 189.934,301.501 190.141,306.217 189.703 C 310.130 189.340,314.770 188.559,318.333 187.664 C 319.112 187.469,320.050 187.237,320.417 187.150 C 320.783 187.063,321.271 186.924,321.500 186.842 C 321.920 186.690,324.345 185.943,324.500 185.917 C 324.697 185.884,326.960 185.108,327.417 184.917 C 327.692 184.802,328.292 184.576,328.750 184.416 C 329.208 184.255,330.033 183.922,330.583 183.674 C 331.133 183.427,332.033 183.044,332.583 182.823 C 333.440 182.478,338.591 179.944,339.583 179.378 C 340.210 179.021,344.539 176.417,344.922 176.167 C 345.132 176.029,345.667 175.698,346.110 175.431 C 346.554 175.164,346.954 174.894,347.000 174.832 C 347.046 174.769,347.608 174.354,348.250 173.909 C 349.357 173.142,351.488 171.533,351.667 171.329 C 351.712 171.277,352.012 171.053,352.333 170.831 C 352.654 170.610,352.992 170.345,353.083 170.243 C 353.175 170.141,353.962 169.465,354.833 168.742 C 355.704 168.018,357.879 165.961,359.667 164.171 C 362.544 161.288,363.421 160.346,365.012 158.428 C 365.234 158.160,365.651 157.672,365.938 157.345 C 366.433 156.781,369.299 152.974,369.833 152.171 C 369.971 151.964,370.331 151.466,370.633 151.064 C 371.290 150.189,371.545 150.223,367.666 150.668 C 364.620 151.018,351.886 152.454,350.384 152.617 C 349.368 152.728,349.448 152.890,349.177 150.167 C 349.082 149.204,348.819 146.804,348.593 144.833 C 348.206 141.455,347.260 133.081,346.749 128.523 C 346.622 127.390,346.495 126.440,346.467 126.412 C 346.440 126.385,346.154 126.886,345.833 127.527 M325.667 163.833 C 326.701 164.570,327.104 166.233,326.523 167.372 L 326.213 167.980 327.887 169.267 L 329.561 170.553 328.739 170.937 C 327.601 171.469,327.583 171.464,326.055 170.245 L 324.693 169.159 324.095 169.444 C 323.413 169.770,323.416 169.829,324.188 171.370 C 324.714 172.417,324.774 172.754,324.458 172.884 C 324.344 172.931,323.965 173.092,323.617 173.240 L 322.984 173.511 322.474 172.381 C 321.438 170.082,321.267 169.706,320.304 167.603 C 319.130 165.039,319.078 165.302,320.920 164.469 C 323.652 163.234,324.639 163.102,325.667 163.833 M276.750 167.969 L 276.917 171.314 278.953 168.750 L 280.990 166.185 282.120 166.571 C 283.512 167.046,283.536 166.646,281.817 171.568 C 280.238 176.086,280.550 175.573,279.559 175.285 C 278.489 174.973,278.490 174.949,279.640 171.933 C 280.185 170.503,280.609 169.333,280.582 169.333 C 280.555 169.333,279.646 170.421,278.563 171.750 C 276.539 174.235,276.464 174.295,275.778 173.982 C 275.262 173.747,275.169 173.116,275.159 169.768 C 275.150 166.916,275.264 166.814,274.013 170.792 C 273.264 173.176,273.299 173.139,272.133 172.741 L 271.373 172.482 271.755 171.366 C 271.966 170.752,272.632 168.828,273.236 167.089 C 273.839 165.351,274.333 163.915,274.333 163.898 C 274.333 163.881,274.840 164.038,275.458 164.246 L 276.583 164.624 276.750 167.969 M322.478 165.539 L 321.706 165.879 322.211 167.023 C 322.782 168.315,322.736 168.292,323.764 167.809 C 326.101 166.711,324.848 164.497,322.478 165.539 M317.417 166.644 C 319.969 167.807,321.036 172.335,319.228 174.336 C 317.238 176.539,314.062 175.856,312.726 172.938 C 310.927 169.007,313.886 165.036,317.417 166.644 M288.569 167.771 C 292.643 169.159,291.458 176.813,287.167 176.829 C 284.736 176.838,283.266 175.302,283.264 172.750 C 283.260 168.958,285.602 166.760,288.569 167.771 M311.134 168.555 C 311.176 169.200,311.136 169.333,310.898 169.333 C 310.740 169.333,310.151 169.413,309.588 169.511 L 308.566 169.689 309.098 173.303 C 309.391 175.291,309.582 176.964,309.523 177.021 C 309.400 177.141,307.667 177.380,307.667 177.276 C 307.667 177.238,307.442 175.680,307.167 173.812 C 306.892 171.945,306.667 170.317,306.667 170.195 C 306.667 170.021,306.430 169.999,305.568 170.091 C 304.964 170.156,304.347 170.218,304.197 170.229 C 303.925 170.250,303.588 168.901,303.829 168.753 C 303.923 168.695,305.099 168.514,309.250 167.923 C 311.142 167.653,311.074 167.630,311.134 168.555 M315.083 168.158 C 314.017 168.594,313.773 170.173,314.486 172.032 C 315.587 174.901,318.395 174.512,318.125 171.527 C 317.904 169.091,316.528 167.566,315.083 168.158 M294.232 168.600 C 294.375 168.654,295.187 169.979,296.037 171.544 L 297.583 174.389 297.694 173.570 C 297.754 173.119,297.812 172.150,297.821 171.417 C 297.830 170.683,297.884 169.799,297.942 169.451 L 298.046 168.818 298.981 168.867 C 299.866 168.914,299.915 168.939,299.881 169.333 C 299.861 169.563,299.760 171.550,299.655 173.750 C 299.439 178.308,299.533 178.012,298.344 177.863 L 297.437 177.750 295.927 174.962 C 294.258 171.880,294.215 171.860,294.182 174.167 C 294.172 174.854,294.116 175.923,294.058 176.542 L 293.952 177.667 293.069 177.667 C 291.949 177.667,291.999 177.810,292.168 175.077 C 292.246 173.797,292.361 171.794,292.422 170.625 L 292.534 168.500 293.253 168.500 C 293.649 168.500,294.089 168.545,294.232 168.600 M303.222 170.042 C 303.278 170.798,303.365 172.392,303.416 173.583 C 303.467 174.775,303.547 176.175,303.594 176.695 L 303.680 177.641 302.749 177.757 C 301.552 177.907,301.682 178.347,301.437 173.311 C 301.191 168.223,301.114 168.667,302.237 168.667 L 303.121 168.667 303.222 170.042 M286.230 169.629 C 284.916 170.943,284.831 174.399,286.099 174.977 C 287.559 175.642,288.650 174.662,289.006 172.364 C 289.406 169.787,287.726 168.133,286.230 169.629 " stroke="none" fill="#3c9bd3" fill-rule="evenodd"></path><path id="path4" d="M77.500 101.333 L 77.500 110.333 80.825 110.333 C 85.416 110.333,86.615 110.019,88.568 108.302 C 90.456 106.643,91.027 105.190,91.125 101.795 C 91.235 98.009,90.584 96.120,88.569 94.374 C 86.518 92.598,85.518 92.333,80.851 92.333 L 77.500 92.333 77.500 101.333 M93.833 101.333 L 93.833 110.333 99.917 110.333 L 106.000 110.333 106.000 108.833 L 106.000 107.333 101.833 107.333 L 97.667 107.333 97.667 104.917 L 97.667 102.500 101.167 102.500 L 104.667 102.500 104.667 101.083 L 104.667 99.667 101.167 99.667 L 97.667 99.667 97.667 97.583 L 97.667 95.500 101.750 95.500 L 105.833 95.500 105.833 93.917 L 105.833 92.333 99.833 92.333 L 93.833 92.333 93.833 101.333 M106.423 92.864 C 106.489 93.162,106.603 93.521,106.677 93.661 C 106.752 93.802,107.085 94.742,107.418 95.750 C 107.750 96.758,108.087 97.733,108.166 97.917 C 108.327 98.288,109.331 101.200,110.352 104.250 C 110.720 105.350,111.086 106.400,111.165 106.583 C 111.245 106.767,111.467 107.404,111.660 108.000 C 111.852 108.596,112.076 109.233,112.156 109.417 C 112.237 109.600,112.345 109.881,112.396 110.042 C 112.478 110.298,112.731 110.333,114.487 110.333 L 116.484 110.333 116.643 109.792 C 116.910 108.884,118.175 105.267,118.321 104.995 C 118.396 104.854,118.513 104.479,118.581 104.161 C 118.649 103.843,118.764 103.508,118.835 103.417 C 118.907 103.325,119.042 102.987,119.135 102.667 C 119.229 102.346,119.754 100.808,120.303 99.250 C 120.852 97.692,121.391 96.154,121.500 95.833 C 121.610 95.513,121.873 94.763,122.086 94.167 C 122.820 92.115,123.002 92.333,120.552 92.333 L 118.414 92.333 118.227 92.958 C 118.123 93.302,117.872 94.146,117.668 94.833 C 117.464 95.521,117.080 96.758,116.815 97.583 C 116.550 98.408,116.333 99.210,116.333 99.365 C 116.333 99.520,116.258 99.693,116.167 99.750 C 116.075 99.807,116.000 99.990,116.000 100.158 C 116.000 100.451,115.015 103.729,114.625 104.735 C 114.387 105.350,114.473 105.555,113.339 101.667 C 113.139 100.979,112.911 100.229,112.833 100.000 C 112.755 99.771,112.530 99.021,112.333 98.333 C 112.136 97.646,111.911 96.896,111.833 96.667 C 111.755 96.438,111.528 95.688,111.328 95.000 C 111.129 94.313,110.868 93.450,110.750 93.083 L 110.534 92.417 108.419 92.370 L 106.305 92.323 106.423 92.864 M276.129 92.663 C 274.648 93.129,272.500 94.620,272.500 95.183 C 272.500 95.252,272.406 95.410,272.292 95.532 C 271.299 96.594,270.917 98.275,270.917 101.583 C 270.917 104.760,270.920 104.779,271.860 106.772 C 274.182 111.695,281.502 112.098,284.634 107.476 C 286.466 104.773,286.545 98.717,284.787 95.834 C 283.057 92.998,279.367 91.646,276.129 92.663 M308.750 92.647 C 305.191 93.679,303.592 96.434,304.920 99.242 C 305.617 100.715,306.516 101.401,309.417 102.677 C 309.600 102.758,310.237 102.986,310.833 103.185 C 313.135 103.952,313.833 104.544,313.833 105.729 C 313.833 108.591,308.342 108.309,307.909 105.424 L 307.795 104.667 305.898 104.667 L 304.000 104.667 304.000 105.412 C 304.000 106.798,305.714 109.500,306.593 109.500 C 306.725 109.500,306.833 109.575,306.833 109.667 C 306.833 109.758,306.927 109.834,307.042 109.834 C 307.156 109.835,307.458 109.944,307.713 110.077 C 309.278 110.893,313.136 110.850,314.959 109.996 C 316.854 109.109,317.659 107.818,317.659 105.667 C 317.659 102.789,316.137 101.218,312.083 99.910 C 308.630 98.796,307.563 97.602,308.825 96.259 C 310.105 94.896,313.833 95.584,313.833 97.183 C 313.833 97.955,313.945 98.000,315.851 98.000 L 317.667 98.000 317.667 97.241 C 317.667 93.821,312.997 91.416,308.750 92.647 M288.500 101.572 L 288.500 110.500 290.500 110.500 L 292.500 110.500 292.500 107.417 L 292.500 104.333 294.708 104.328 C 300.008 104.317,302.255 102.580,302.246 98.500 C 302.240 95.899,301.433 94.497,299.250 93.299 L 298.250 92.750 293.375 92.697 L 288.500 92.644 288.500 101.572 M85.036 96.005 C 86.689 96.851,87.333 98.356,87.333 101.374 C 87.333 105.495,86.109 106.981,82.458 107.287 L 81.333 107.382 81.333 101.419 L 81.333 95.457 82.875 95.573 C 83.864 95.647,84.639 95.802,85.036 96.005 M279.898 95.898 C 282.956 97.176,283.031 105.478,280.000 107.117 C 277.076 108.699,274.667 106.165,274.667 101.508 C 274.667 96.937,276.831 94.616,279.898 95.898 M297.225 96.190 C 298.068 96.733,298.563 97.785,298.463 98.823 C 298.294 100.585,297.261 101.167,294.304 101.167 L 292.500 101.167 292.500 98.392 L 292.500 95.618 294.557 95.707 C 296.347 95.784,296.694 95.847,297.225 96.190 " stroke="none" fill="#0c2c2c" fill-rule="evenodd"></path><path id="path5" d="M153.375 37.621 C 153.719 37.657,154.281 37.657,154.625 37.621 C 154.969 37.585,154.688 37.556,154.000 37.556 C 153.313 37.556,153.031 37.585,153.375 37.621 M137.542 37.788 C 137.885 37.824,138.448 37.824,138.792 37.788 C 139.135 37.752,138.854 37.723,138.167 37.723 C 137.479 37.723,137.198 37.752,137.542 37.788 M240.125 49.784 C 240.331 49.824,240.669 49.824,240.875 49.784 C 241.081 49.745,240.912 49.712,240.500 49.712 C 240.088 49.712,239.919 49.745,240.125 49.784 M227.125 50.284 C 227.331 50.324,227.669 50.324,227.875 50.284 C 228.081 50.245,227.912 50.212,227.500 50.212 C 227.088 50.212,226.919 50.245,227.125 50.284 M136.055 52.750 C 136.055 53.392,136.086 53.634,136.122 53.288 C 136.158 52.942,136.157 52.417,136.120 52.121 C 136.083 51.825,136.054 52.108,136.055 52.750 M174.073 69.042 L 173.583 69.583 174.125 69.094 C 174.630 68.638,174.743 68.500,174.615 68.500 C 174.586 68.500,174.342 68.744,174.073 69.042 M168.573 74.375 L 168.083 74.917 168.625 74.427 C 168.923 74.158,169.167 73.914,169.167 73.885 C 169.167 73.757,169.029 73.870,168.573 74.375 M184.240 87.875 L 183.750 88.417 184.292 87.927 C 184.797 87.471,184.910 87.333,184.781 87.333 C 184.752 87.333,184.509 87.577,184.240 87.875 M200.073 119.875 L 199.583 120.417 200.125 119.927 C 200.630 119.471,200.743 119.333,200.615 119.333 C 200.586 119.333,200.342 119.577,200.073 119.875 M57.872 138.167 C 57.872 138.487,57.906 138.619,57.948 138.458 C 57.990 138.298,57.990 138.035,57.948 137.875 C 57.906 137.715,57.872 137.846,57.872 138.167 M260.201 143.957 C 260.816 143.989,261.866 143.989,262.534 143.957 C 263.203 143.926,262.700 143.899,261.417 143.899 C 260.133 143.899,259.586 143.925,260.201 143.957 M246.625 144.124 C 247.290 144.155,248.377 144.155,249.042 144.124 C 249.706 144.092,249.162 144.066,247.833 144.066 C 246.504 144.066,245.960 144.092,246.625 144.124 M243.223 147.167 C 243.223 147.854,243.252 148.135,243.288 147.792 C 243.324 147.448,243.324 146.885,243.288 146.542 C 243.252 146.198,243.223 146.479,243.223 147.167 M243.399 164.250 C 243.399 165.533,243.426 166.036,243.457 165.368 C 243.489 164.699,243.489 163.649,243.457 163.034 C 243.425 162.420,243.399 162.967,243.399 164.250 " stroke="none" fill="#3d84c4" fill-rule="evenodd"></path><path id="path6" d="M298.375 25.619 C 298.627 25.658,299.040 25.658,299.292 25.619 C 299.544 25.581,299.337 25.550,298.833 25.550 C 298.329 25.550,298.123 25.581,298.375 25.619 M299.889 27.833 C 299.889 28.521,299.919 28.802,299.955 28.458 C 299.991 28.115,299.991 27.552,299.955 27.208 C 299.919 26.865,299.889 27.146,299.889 27.833 M297.883 29.000 C 297.883 29.504,297.915 29.710,297.953 29.458 C 297.991 29.206,297.991 28.794,297.953 28.542 C 297.915 28.290,297.883 28.496,297.883 29.000 M276.460 30.285 C 276.668 30.324,276.968 30.323,277.127 30.281 C 277.286 30.239,277.117 30.207,276.750 30.209 C 276.383 30.211,276.253 30.245,276.460 30.285 M316.913 32.004 C 316.680 32.262,316.576 32.291,316.473 32.129 C 316.375 31.974,316.338 31.996,316.336 32.208 C 316.332 32.612,316.540 32.573,317.000 32.083 C 317.215 31.854,317.352 31.667,317.305 31.667 C 317.257 31.667,317.081 31.818,316.913 32.004 M318.824 32.625 L 318.250 33.250 318.875 32.676 C 319.457 32.141,319.577 32.000,319.449 32.000 C 319.422 32.000,319.140 32.281,318.824 32.625 M307.794 35.618 C 308.001 35.658,308.301 35.656,308.460 35.615 C 308.620 35.573,308.450 35.540,308.083 35.542 C 307.717 35.544,307.586 35.578,307.794 35.618 M151.121 37.620 C 151.417 37.657,151.942 37.658,152.288 37.622 C 152.634 37.586,152.392 37.555,151.750 37.555 C 151.108 37.554,150.825 37.583,151.121 37.620 M136.127 37.785 C 136.334 37.824,136.634 37.823,136.794 37.781 C 136.953 37.739,136.783 37.707,136.417 37.709 C 136.050 37.711,135.920 37.745,136.127 37.785 M135.889 39.167 C 135.889 39.854,135.919 40.135,135.955 39.792 C 135.991 39.448,135.991 38.885,135.955 38.542 C 135.919 38.198,135.889 38.479,135.889 39.167 M135.889 43.667 C 135.889 44.354,135.919 44.635,135.955 44.292 C 135.991 43.948,135.991 43.385,135.955 43.042 C 135.919 42.698,135.889 42.979,135.889 43.667 M241.628 49.787 C 241.928 49.825,242.378 49.824,242.628 49.786 C 242.878 49.748,242.633 49.717,242.083 49.718 C 241.533 49.719,241.328 49.750,241.628 49.787 M237.460 49.951 C 237.668 49.991,237.968 49.990,238.127 49.948 C 238.286 49.906,238.117 49.874,237.750 49.875 C 237.383 49.877,237.253 49.911,237.460 49.951 M224.460 50.451 C 224.668 50.491,224.968 50.490,225.127 50.448 C 225.286 50.406,225.117 50.374,224.750 50.375 C 224.383 50.377,224.253 50.411,224.460 50.451 M136.056 55.000 C 136.056 55.688,136.085 55.969,136.121 55.625 C 136.157 55.281,136.157 54.719,136.121 54.375 C 136.085 54.031,136.056 54.313,136.056 55.000 M157.244 55.208 L 156.417 56.083 157.292 55.256 C 158.105 54.488,158.243 54.333,158.119 54.333 C 158.092 54.333,157.699 54.727,157.244 55.208 M163.824 60.125 L 163.250 60.750 163.875 60.176 C 164.457 59.641,164.577 59.500,164.449 59.500 C 164.422 59.500,164.140 59.781,163.824 60.125 M158.491 62.625 L 157.917 63.250 158.542 62.676 C 159.123 62.141,159.243 62.000,159.116 62.000 C 159.088 62.000,158.807 62.281,158.491 62.625 M158.000 64.417 C 158.311 64.737,158.603 65.000,158.649 65.000 C 158.695 65.000,158.478 64.737,158.167 64.417 C 157.856 64.096,157.564 63.833,157.518 63.833 C 157.472 63.833,157.689 64.096,158.000 64.417 M161.000 65.250 C 161.311 65.571,161.603 65.833,161.649 65.833 C 161.695 65.833,161.478 65.571,161.167 65.250 C 160.856 64.929,160.564 64.667,160.518 64.667 C 160.472 64.667,160.689 64.929,161.000 65.250 M172.491 70.625 L 171.917 71.250 172.542 70.676 C 172.885 70.360,173.167 70.078,173.167 70.051 C 173.167 69.923,173.026 70.043,172.491 70.625 M172.240 73.542 L 171.750 74.083 172.292 73.594 C 172.590 73.325,172.833 73.081,172.833 73.052 C 172.833 72.923,172.696 73.037,172.240 73.542 M175.089 75.661 C 174.829 75.932,174.552 76.116,174.474 76.068 C 174.397 76.020,174.333 76.112,174.333 76.274 C 174.333 76.495,174.499 76.406,175.000 75.917 C 175.367 75.559,175.667 75.243,175.667 75.216 C 175.667 75.095,175.531 75.200,175.089 75.661 M174.494 78.958 L 173.583 79.917 174.542 79.006 C 175.069 78.505,175.500 78.073,175.500 78.047 C 175.500 77.924,175.341 78.068,174.494 78.958 M102.879 174.667 C 102.879 175.079,102.911 175.248,102.951 175.042 C 102.991 174.835,102.991 174.498,102.951 174.292 C 102.911 174.085,102.879 174.254,102.879 174.667 " stroke="none" fill="#4f8ccc" fill-rule="evenodd"></path><path id="path7" d="" stroke="none" fill="#5470c8" fill-rule="evenodd"></path><path id="path8" d="" stroke="none" fill="#5470c8" fill-rule="evenodd"></path></g></svg>