<?xml version="1.0" encoding="UTF-8"?>
<!DOCTYPE svg PUBLIC "-//W3C//DTD SVG 1.1//EN" "http://www.w3.org/Graphics/SVG/1.1/DTD/svg11.dtd">
<svg xmlns="http://www.w3.org/2000/svg" version="1.1" width="3500px" height="1120px" style="shape-rendering:geometricPrecision; text-rendering:geometricPrecision; image-rendering:optimizeQuality; fill-rule:evenodd; clip-rule:evenodd" xmlns:xlink="http://www.w3.org/1999/xlink">
<g><path style="opacity:0.999" fill="#254aa4" d="M 1010.5,-0.5 C 1244.5,-0.5 1478.5,-0.5 1712.5,-0.5C 1710.24,21.8441 1707.91,44.1774 1705.5,66.5C 1704.83,66.5 1704.5,66.8333 1704.5,67.5C 1471.17,67.5 1237.83,67.5 1004.5,67.5C 1004.5,66.8333 1004.17,66.5 1003.5,66.5C 1005.77,44.1597 1008.1,21.8264 1010.5,-0.5 Z"/></g>
<g><path style="opacity:0.997" fill="#05a1e6" d="M 1003.5,66.5 C 1004.17,66.5 1004.5,66.8333 1004.5,67.5C 989.598,213.186 974.431,358.853 959,504.5C 954.148,569.445 938.148,631.445 911,690.5C 866.204,781.942 794.37,840.442 695.5,866C 621.677,884.649 546.677,893.149 470.5,891.5C 408.314,892.422 346.647,887.255 285.5,876C 243.599,868.145 203.933,854.145 166.5,834C 115.173,802.922 81.0058,758.422 64,700.5C 52.8904,661.79 47.7237,622.29 48.5,582C 48.3984,563.125 49.2318,544.292 51,525.5C 66.8399,372.775 83.0066,220.108 99.5,67.5C 185.497,66.5 271.497,66.1667 357.5,66.5C 341.799,218.839 325.966,371.173 310,523.5C 305.932,561.293 309.599,598.293 321,634.5C 342.688,691.848 383.855,725.348 444.5,735C 523.623,744.854 590.123,720.687 644,662.5C 664.72,636.728 679.387,607.728 688,575.5C 692.488,558.727 695.821,541.727 698,524.5C 714.132,371.815 730.298,219.148 746.5,66.5C 832.167,66.5 917.833,66.5 1003.5,66.5 Z"/></g>
<g><path style="opacity:0.997" fill="#05a1e6" d="M 1705.5,66.5 C 1896.18,66.0143 2086.85,66.5143 2277.5,68C 2342.29,74.2548 2400.95,96.2548 2453.5,134C 2502.09,173.721 2521.59,224.887 2512,287.5C 2504.7,334.273 2483.2,373.106 2447.5,404C 2408.83,436.336 2364.83,458.669 2315.5,471C 2313.91,474.275 2314.24,477.275 2316.5,480C 2348.65,484.495 2379.32,493.829 2408.5,508C 2435.34,523.635 2451.01,546.968 2455.5,578C 2457.4,588.416 2458.56,598.916 2459,609.5C 2460.71,677.825 2462.04,746.158 2463,814.5C 2489.61,565.501 2516.11,316.501 2542.5,67.5C 2665.17,66.1667 2787.83,66.1667 2910.5,67.5C 3007.92,244.006 3105.09,420.673 3202,597.5C 3220.97,420.506 3239.8,243.506 3258.5,66.5C 3338.83,66.5 3419.17,66.5 3499.5,66.5C 3499.5,69.8333 3499.5,73.1667 3499.5,76.5C 3471,341.638 3443,606.972 3415.5,872.5C 3298.5,872.667 3181.5,872.5 3064.5,872C 2961.87,691.248 2859.37,510.415 2757,329.5C 2737.18,510.413 2718.01,691.413 2699.5,872.5C 2528.83,872.5 2358.17,872.5 2187.5,872.5C 2188.7,796.488 2190.37,720.488 2192.5,644.5C 2187.8,607.651 2169.14,580.485 2136.5,563C 2061.49,561.679 1986.49,560.179 1911.5,558.5C 1900.5,663.167 1889.5,767.833 1878.5,872.5C 1792.5,872.5 1706.5,872.5 1620.5,872.5C 1643,657.172 1665.33,441.839 1687.5,226.5C 1693.24,173.512 1698.91,120.512 1704.5,67.5C 1704.5,66.8333 1704.83,66.5 1705.5,66.5 Z M 1947.5,215.5 C 2006.83,215.333 2066.17,215.5 2125.5,216C 2165.17,218.424 2198.67,233.924 2226,262.5C 2237.35,276.893 2242.02,293.227 2240,311.5C 2233.67,351.657 2211.83,379.824 2174.5,396C 2156.63,403.802 2137.96,408.469 2118.5,410C 2054.83,410.5 1991.17,410.667 1927.5,410.5C 1933.97,345.48 1940.64,280.48 1947.5,215.5 Z"/></g>
<g><path style="opacity:0.998" fill="#244aa5" d="M 1687.5,226.5 C 1665.33,441.839 1643,657.172 1620.5,872.5C 1612.27,954.897 1603.6,1037.23 1594.5,1119.5C 1360.5,1119.5 1126.5,1119.5 892.5,1119.5C 901.43,1036.87 910.096,954.202 918.5,871.5C 1004.4,871.832 1090.24,871.498 1176,870.5C 1187.02,766.845 1197.85,663.179 1208.5,559.5C 1343.5,559.5 1478.5,559.5 1613.5,559.5C 1618.9,505.464 1624.57,451.464 1630.5,397.5C 1495.5,397.833 1360.5,397.5 1225.5,396.5C 1232.01,339.904 1238.01,283.237 1243.5,226.5C 1391.5,226.5 1539.5,226.5 1687.5,226.5 Z M 958.5,940.5 C 974.833,940.5 991.167,940.5 1007.5,940.5C 1006.83,945.167 1006.17,949.833 1005.5,954.5C 993.482,954.168 981.482,954.501 969.5,955.5C 967.292,966.413 965.626,977.413 964.5,988.5C 976.167,988.5 987.833,988.5 999.5,988.5C 998.833,993.167 998.167,997.833 997.5,1002.5C 985.5,1002.5 973.5,1002.5 961.5,1002.5C 958.726,1018.81 956.059,1035.15 953.5,1051.5C 949.167,1051.5 944.833,1051.5 940.5,1051.5C 946.392,1014.48 952.392,977.483 958.5,940.5 Z M 1045.5,940.5 C 1061.84,940.333 1078.17,940.5 1094.5,941C 1093.5,945.333 1092.5,949.667 1091.5,954C 1079.5,954.5 1067.5,954.667 1055.5,954.5C 1054.05,965.866 1052.38,977.199 1050.5,988.5C 1062.5,988.333 1074.5,988.5 1086.5,989C 1085.4,993.074 1084.57,997.24 1084,1001.5C 1071.91,1002.49 1059.75,1002.82 1047.5,1002.5C 1046.05,1013.86 1044.38,1025.2 1042.5,1036.5C 1054.17,1036.5 1065.83,1036.5 1077.5,1036.5C 1077.3,1041.24 1076.63,1045.91 1075.5,1050.5C 1059.17,1051.83 1042.83,1051.83 1026.5,1050.5C 1032.84,1013.8 1039.17,977.137 1045.5,940.5 Z M 1133.5,940.5 C 1145.17,940.333 1156.84,940.5 1168.5,941C 1185.77,944.269 1196.6,954.436 1201,971.5C 1205.4,992.061 1202.4,1011.39 1192,1029.5C 1183.45,1041.36 1171.95,1048.53 1157.5,1051C 1143.5,1051.5 1129.5,1051.67 1115.5,1051.5C 1121.39,1014.48 1127.39,977.483 1133.5,940.5 Z M 1247.5,940.5 C 1263.84,940.333 1280.17,940.5 1296.5,941C 1295.5,945.333 1294.5,949.667 1293.5,954C 1281.5,954.5 1269.5,954.667 1257.5,954.5C 1256.05,965.866 1254.38,977.199 1252.5,988.5C 1264.5,988.333 1276.5,988.5 1288.5,989C 1287.4,993.074 1286.57,997.24 1286,1001.5C 1273.91,1002.49 1261.75,1002.82 1249.5,1002.5C 1248.05,1013.86 1246.38,1025.2 1244.5,1036.5C 1256.17,1036.5 1267.83,1036.5 1279.5,1036.5C 1279.3,1041.24 1278.63,1045.91 1277.5,1050.5C 1261.17,1051.83 1244.83,1051.83 1228.5,1050.5C 1234.84,1013.8 1241.17,977.137 1247.5,940.5 Z M 1335.5,940.5 C 1346.84,940.333 1358.17,940.5 1369.5,941C 1388.45,945.693 1396.95,957.859 1395,977.5C 1392.21,995.791 1381.71,1006.79 1363.5,1010.5C 1369.55,1024.15 1375.88,1037.65 1382.5,1051C 1377.47,1051.83 1372.47,1051.66 1367.5,1050.5C 1359.5,1033.17 1351.5,1015.83 1343.5,998.5C 1350.15,997.557 1356.82,996.723 1363.5,996C 1372.09,994.748 1377.59,989.915 1380,981.5C 1383.82,963.498 1376.49,954.498 1358,954.5C 1354.13,954.619 1350.3,954.953 1346.5,955.5C 1341.17,987.5 1335.83,1019.5 1330.5,1051.5C 1326.17,1051.5 1321.83,1051.5 1317.5,1051.5C 1323.61,1014.52 1329.61,977.517 1335.5,940.5 Z M 1457.5,940.5 C 1462.83,940.5 1468.17,940.5 1473.5,940.5C 1479.73,977.52 1486.06,1014.52 1492.5,1051.5C 1487.83,1051.5 1483.17,1051.5 1478.5,1051.5C 1477.37,1041.08 1475.71,1030.74 1473.5,1020.5C 1460.18,1019.5 1446.85,1019.17 1433.5,1019.5C 1429.49,1030 1424.99,1040.34 1420,1050.5C 1415.25,1051.63 1410.42,1051.8 1405.5,1051C 1423.25,1014.34 1440.58,977.508 1457.5,940.5 Z M 1536.5,940.5 C 1541.18,940.334 1545.85,940.501 1550.5,941C 1544.69,972.72 1539.35,1004.55 1534.5,1036.5C 1545.17,1036.5 1555.83,1036.5 1566.5,1036.5C 1565.94,1041.52 1565.28,1046.52 1564.5,1051.5C 1549.17,1051.5 1533.83,1051.5 1518.5,1051.5C 1524.82,1014.55 1530.82,977.553 1536.5,940.5 Z"/></g>
<g><path style="opacity:0.974" fill="#2549a5" d="M 2057.5,936.5 C 2082.48,936.322 2097.98,948.322 2104,972.5C 2108.46,995.732 2104.13,1017.07 2091,1036.5C 2072.48,1055.96 2050.98,1060.12 2026.5,1049C 2011.69,1037.38 2004.69,1022.05 2005.5,1003C 2004.71,978.298 2014.04,958.631 2033.5,944C 2041.15,939.946 2049.15,937.446 2057.5,936.5 Z M 2055.5,952.5 C 2073.29,951.977 2084.46,960.311 2089,977.5C 2093.41,999.94 2087.24,1018.77 2070.5,1034C 2052.78,1043.69 2037.95,1040.53 2026,1024.5C 2019.79,1007.72 2020.13,991.057 2027,974.5C 2033.03,962.431 2042.53,955.098 2055.5,952.5 Z"/></g>
<g><path style="opacity:0.971" fill="#254aa5" d="M 2889.5,936.5 C 2913.51,936.675 2928.67,948.342 2935,971.5C 2939.61,994.546 2935.61,1015.88 2923,1035.5C 2906.04,1054.53 2885.54,1059.7 2861.5,1051C 2851.18,1045.21 2844.01,1036.71 2840,1025.5C 2833.61,1001.33 2836.95,978.666 2850,957.5C 2860.12,944.524 2873.29,937.524 2889.5,936.5 Z M 2886.5,952.5 C 2902.55,951.599 2913.38,958.599 2919,973.5C 2923.48,991.158 2921.14,1007.82 2912,1023.5C 2900.66,1038.61 2886.16,1042.78 2868.5,1036C 2856.85,1027.53 2851.52,1016.03 2852.5,1001.5C 2851.97,985.073 2857.63,971.239 2869.5,960C 2874.78,956.353 2880.45,953.853 2886.5,952.5 Z"/></g>
<g><path style="opacity:0.973" fill="#2549a5" d="M 3140.5,936.5 C 3164.51,936.675 3179.67,948.342 3186,971.5C 3190.6,994.551 3186.6,1015.88 3174,1035.5C 3157.04,1054.53 3136.54,1059.7 3112.5,1051C 3102.18,1045.21 3095.01,1036.71 3091,1025.5C 3084.61,1001.33 3087.95,978.666 3101,957.5C 3111.12,944.524 3124.29,937.524 3140.5,936.5 Z M 3137.5,952.5 C 3161.26,953.431 3172.92,965.931 3172.5,990C 3172.55,1003.99 3168.38,1016.49 3160,1027.5C 3148.38,1039.29 3134.88,1042.12 3119.5,1036C 3108,1027.66 3102.67,1016.33 3103.5,1002C 3103.11,985.488 3108.78,971.488 3120.5,960C 3125.78,956.353 3131.45,953.853 3137.5,952.5 Z"/></g>
<g><path style="opacity:0.977" fill="#254aa5" d="M 484.5,936.5 C 506.098,937.439 516.098,948.772 514.5,970.5C 509.167,970.5 503.833,970.5 498.5,970.5C 500.346,960.965 496.679,954.965 487.5,952.5C 474.583,956.665 471.416,964.665 478,976.5C 486.667,983.833 495.333,991.167 504,998.5C 514.058,1016.97 511.891,1033.81 497.5,1049C 485.914,1056.78 473.914,1057.45 461.5,1051C 451.17,1041.52 446.837,1029.69 448.5,1015.5C 453.833,1015.5 459.167,1015.5 464.5,1015.5C 464.25,1020.58 464.75,1025.58 466,1030.5C 473.846,1040.75 482.179,1041.08 491,1031.5C 496.039,1020.55 493.872,1011.38 484.5,1004C 476.86,999.927 470.026,994.76 464,988.5C 456.7,975.218 456.7,961.885 464,948.5C 469.494,942.01 476.327,938.01 484.5,936.5 Z"/></g>
<g><path style="opacity:0.975" fill="#254aa5" d="M 1787.5,936.5 C 1811.1,936.601 1826.26,947.934 1833,970.5C 1837.97,993.355 1834.3,1014.69 1822,1034.5C 1802.96,1056.15 1780.46,1060.65 1754.5,1048C 1744.08,1039.66 1737.91,1028.82 1736,1015.5C 1732.94,994.108 1737.28,974.441 1749,956.5C 1759.26,944.623 1772.09,937.956 1787.5,936.5 Z M 1784.5,952.5 C 1808.26,953.432 1819.93,965.932 1819.5,990C 1819.89,1006.51 1814.22,1020.51 1802.5,1032C 1786.57,1042.98 1771.74,1041.81 1758,1028.5C 1750.07,1014.29 1748.4,999.291 1753,983.5C 1757.5,966.835 1768,956.502 1784.5,952.5 Z"/></g>
<g><path style="opacity:0.976" fill="#254aa5" d="M 2201.5,937.5 C 2232.73,933.414 2251.4,946.747 2257.5,977.5C 2252.16,977.666 2246.82,977.499 2241.5,977C 2233.36,954.059 2218.03,947.392 2195.5,957C 2175.68,973.077 2169.18,993.577 2176,1018.5C 2183.05,1035.44 2195.55,1041.94 2213.5,1038C 2226.17,1033.33 2234.83,1024.67 2239.5,1012C 2224.84,1011.5 2210.17,1011.33 2195.5,1011.5C 2196.28,1006.52 2196.94,1001.52 2197.5,996.5C 2217.84,996.333 2238.17,996.5 2258.5,997C 2256.95,1018.45 2247.62,1035.45 2230.5,1048C 2209.36,1059.34 2189.52,1057.5 2171,1042.5C 2161.9,1030.8 2157.4,1017.47 2157.5,1002.5C 2157.26,978.814 2166.26,959.648 2184.5,945C 2190,941.911 2195.67,939.411 2201.5,937.5 Z"/></g>
<g><path style="opacity:0.975" fill="#254aa5" d="M -0.5,1034.5 C -0.5,1026.83 -0.5,1019.17 -0.5,1011.5C 3.91137,987.698 7.91137,963.698 11.5,939.5C 16.8437,939.334 22.1771,939.501 27.5,940C 22.3606,966.671 18.0272,993.504 14.5,1020.5C 14.3403,1034.17 21.007,1039.67 34.5,1037C 37.5616,1035.94 40.0616,1034.11 42,1031.5C 44.0591,1027.32 45.7258,1022.99 47,1018.5C 51.9341,992.229 56.4341,965.895 60.5,939.5C 65.5,939.5 70.5,939.5 75.5,939.5C 71.2725,971.803 65.4392,1003.8 58,1035.5C 52.2292,1048.76 42.0625,1055.42 27.5,1055.5C 12.9133,1055.22 3.57992,1048.22 -0.5,1034.5 Z"/></g>
<g><path style="opacity:0.974" fill="#254aa5" d="M 96.5,939.5 C 103.532,939.17 110.532,939.503 117.5,940.5C 126.234,969.202 135.068,997.869 144,1026.5C 149.051,997.526 153.885,968.526 158.5,939.5C 163.5,939.5 168.5,939.5 173.5,939.5C 167.608,977.182 161.608,1014.85 155.5,1052.5C 148.578,1052.81 141.744,1052.48 135,1051.5C 126.4,1021.7 117.4,992.036 108,962.5C 103,992.167 98,1021.83 93,1051.5C 87.8861,1052.8 82.7195,1052.8 77.5,1051.5C 84.0488,1014.21 90.3821,976.874 96.5,939.5 Z"/></g>
<g><path style="opacity:0.972" fill="#254aa5" d="M 215.5,939.5 C 220.833,939.5 226.167,939.5 231.5,939.5C 234.933,969.963 239.099,1000.3 244,1030.5C 257.597,1000.54 271.097,970.542 284.5,940.5C 290.167,939.167 295.833,939.167 301.5,940.5C 284.333,977.5 267.167,1014.5 250,1051.5C 243.924,1052.48 237.758,1052.81 231.5,1052.5C 226.352,1014.79 221.018,977.128 215.5,939.5 Z"/></g>
<g><path style="opacity:0.984" fill="#2549a5" d="M 310.5,939.5 C 327.513,939.167 344.513,939.501 361.5,940.5C 360.5,945.167 359.5,949.833 358.5,954.5C 346.518,955.499 334.518,955.832 322.5,955.5C 321.049,966.203 319.383,976.87 317.5,987.5C 329.518,987.168 341.518,987.501 353.5,988.5C 352.345,993.095 351.512,997.762 351,1002.5C 338.914,1003.49 326.747,1003.82 314.5,1003.5C 313.05,1014.2 311.383,1024.87 309.5,1035.5C 321.505,1035.33 333.505,1035.5 345.5,1036C 344.343,1041.44 343.343,1046.94 342.5,1052.5C 325.5,1052.5 308.5,1052.5 291.5,1052.5C 297.515,1014.74 303.848,977.078 310.5,939.5 Z"/></g>
<g><path style="opacity:0.971" fill="#254aa5" d="M 387.5,996.5 C 384.031,1014.31 380.864,1032.31 378,1050.5C 373.142,1052.41 367.975,1053.08 362.5,1052.5C 368.557,1015.16 374.723,977.826 381,940.5C 392.757,939.346 404.591,939.179 416.5,940C 429.328,941.978 437.495,949.145 441,961.5C 446.291,987.268 436.458,1003.93 411.5,1011.5C 417.934,1024.97 424.267,1038.47 430.5,1052C 424.584,1052.81 418.75,1052.64 413,1051.5C 404.488,1033.14 395.988,1014.81 387.5,996.5 Z M 387.5,996.5 C 388.972,982.998 391.306,969.664 394.5,956.5C 403.123,954.642 411.456,955.476 419.5,959C 427.815,967.757 428.649,977.257 422,987.5C 419.736,990.433 416.902,992.6 413.5,994C 404.943,995.921 396.276,996.754 387.5,996.5 Z"/></g>
<g><path style="opacity:0.977" fill="#254aa5" d="M 569.5,939.5 C 581.838,939.333 594.171,939.5 606.5,940C 623.77,943.269 634.603,953.436 639,970.5C 643.592,991.678 640.592,1011.68 630,1030.5C 621.446,1042.36 609.946,1049.53 595.5,1052C 580.837,1052.5 566.17,1052.67 551.5,1052.5C 557.392,1014.82 563.392,977.15 569.5,939.5 Z M 582.5,955.5 C 615.04,952.208 629.206,966.875 625,999.5C 618.272,1029.81 599.438,1041.98 568.5,1036C 573.329,1009.19 577.996,982.358 582.5,955.5 Z"/></g>
<g><path style="opacity:0.977" fill="#254aa5" d="M 687.5,939.5 C 693.425,939.192 699.259,939.525 705,940.5C 711.567,977.835 718.067,1015.17 724.5,1052.5C 719.167,1052.5 713.833,1052.5 708.5,1052.5C 706.833,1041.83 705.167,1031.17 703.5,1020.5C 690.816,1020.17 678.149,1020.5 665.5,1021.5C 660.833,1031.5 656.167,1041.5 651.5,1051.5C 645.833,1052.83 640.167,1052.83 634.5,1051.5C 652.181,1014.14 669.847,976.807 687.5,939.5 Z M 693.5,959.5 C 696.19,973.979 698.523,988.645 700.5,1003.5C 691.494,1003.67 682.494,1003.5 673.5,1003C 680.309,988.549 686.976,974.049 693.5,959.5 Z"/></g>
<g><path style="opacity:0.977" fill="#254aa5" d="M 748.5,939.5 C 760.838,939.333 773.171,939.5 785.5,940C 804.981,944.42 816.148,956.587 819,976.5C 821.881,996.226 818.215,1014.56 808,1031.5C 800.677,1041.09 791.177,1047.59 779.5,1051C 762.879,1052.59 746.212,1052.92 729.5,1052C 736.207,1014.59 742.54,977.093 748.5,939.5 Z M 760.5,955.5 C 769.235,955.124 777.902,955.624 786.5,957C 797.436,962.349 803.269,971.182 804,983.5C 806.608,1003.77 799.775,1019.94 783.5,1032C 779.637,1033.73 775.637,1035.07 771.5,1036C 763.507,1036.5 755.507,1036.67 747.5,1036.5C 752.158,1009.55 756.491,982.553 760.5,955.5 Z"/></g>
<g><path style="opacity:0.985" fill="#254aa5" d="M 844.5,939.5 C 861.5,939.5 878.5,939.5 895.5,939.5C 894.765,944.746 893.765,949.912 892.5,955C 880.505,955.5 868.505,955.667 856.5,955.5C 855.315,966.11 853.648,976.61 851.5,987C 863.495,987.5 875.495,987.667 887.5,987.5C 886.554,992.793 885.887,998.126 885.5,1003.5C 873.253,1003.18 861.086,1003.51 849,1004.5C 847.488,1014.57 845.655,1024.57 843.5,1034.5C 855.482,1035.5 867.482,1035.83 879.5,1035.5C 878.715,1040.87 877.715,1046.21 876.5,1051.5C 859.513,1052.5 842.513,1052.83 825.5,1052.5C 831.727,1014.81 838.06,977.141 844.5,939.5 Z"/></g>
<g><path style="opacity:0.975" fill="#2549a5" d="M 1653.5,939.5 C 1705.97,931.143 1729.14,953.143 1723,1005.5C 1718.31,1030.85 1703.48,1046.35 1678.5,1052C 1663.84,1052.5 1649.17,1052.67 1634.5,1052.5C 1640.51,1014.74 1646.85,977.078 1653.5,939.5 Z M 1665.5,955.5 C 1672.84,955.334 1680.17,955.5 1687.5,956C 1699.29,959.365 1706.12,967.199 1708,979.5C 1710.83,995.158 1707.83,1009.49 1699,1022.5C 1693.13,1029.69 1685.63,1034.19 1676.5,1036C 1668.51,1036.5 1660.51,1036.67 1652.5,1036.5C 1656.51,1009.45 1660.84,982.446 1665.5,955.5 Z"/></g>
<g><path style="opacity:0.97" fill="#2549a5" d="M 1901.5,939.5 C 1913.17,939.333 1924.84,939.5 1936.5,940C 1954.66,943.677 1963.33,954.843 1962.5,973.5C 1962.19,994.286 1951.86,1006.79 1931.5,1011C 1937.69,1024.54 1944.02,1038.04 1950.5,1051.5C 1944.83,1052.83 1939.17,1052.83 1933.5,1051.5C 1924.73,1033.62 1916.23,1015.62 1908,997.5C 1903.98,1015.61 1900.81,1033.95 1898.5,1052.5C 1893.13,1052.83 1887.79,1052.49 1882.5,1051.5C 1889.05,1014.21 1895.38,976.873 1901.5,939.5 Z M 1915.5,955.5 C 1923.35,954.911 1931.02,955.745 1938.5,958C 1947.38,966.217 1948.88,975.717 1943,986.5C 1940.41,989.762 1937.24,992.262 1933.5,994C 1924.94,995.921 1916.28,996.754 1907.5,996.5C 1909.22,982.502 1911.88,968.835 1915.5,955.5 Z"/></g>
<g><path style="opacity:0.961" fill="#2549a5" d="M 1985.5,939.5 C 1990.5,939.5 1995.5,939.5 2000.5,939.5C 1994.34,976.487 1988.17,1013.49 1982,1050.5C 1977.14,1052.41 1971.98,1053.08 1966.5,1052.5C 1972.51,1014.74 1978.85,977.078 1985.5,939.5 Z"/></g>
<g><path style="opacity:0.975" fill="#254aa5" d="M 2288.5,996.5 C 2285.03,1014.31 2281.86,1032.31 2279,1050.5C 2274.14,1052.41 2268.98,1053.08 2263.5,1052.5C 2269.56,1015.16 2275.72,977.826 2282,940.5C 2293.76,939.346 2305.59,939.179 2317.5,940C 2330.33,941.978 2338.49,949.145 2342,961.5C 2347.29,987.268 2337.46,1003.93 2312.5,1011.5C 2318.93,1024.97 2325.27,1038.47 2331.5,1052C 2325.58,1052.81 2319.75,1052.64 2314,1051.5C 2305.49,1033.14 2296.99,1014.81 2288.5,996.5 Z M 2288.5,996.5 C 2289.97,982.998 2292.31,969.664 2295.5,956.5C 2304.14,954.585 2312.47,955.419 2320.5,959C 2328.82,967.757 2329.65,977.257 2323,987.5C 2320.74,990.433 2317.9,992.6 2314.5,994C 2305.94,995.921 2297.28,996.754 2288.5,996.5 Z"/></g>
<g><path style="opacity:0.977" fill="#2549a5" d="M 2386.5,939.5 C 2392.63,938.908 2398.46,939.575 2404,941.5C 2410.39,978.201 2416.89,1014.87 2423.5,1051.5C 2418.21,1052.49 2412.87,1052.83 2407.5,1052.5C 2405.62,1041.87 2403.95,1031.2 2402.5,1020.5C 2389.83,1020.33 2377.16,1020.5 2364.5,1021C 2359.5,1031.33 2354.5,1041.67 2349.5,1052C 2344.14,1052.83 2338.8,1052.66 2333.5,1051.5C 2351.18,1014.14 2368.85,976.807 2386.5,939.5 Z M 2391.5,960.5 C 2392.73,961.152 2393.39,962.319 2393.5,964C 2395.46,977.187 2397.46,990.354 2399.5,1003.5C 2390.49,1003.67 2381.49,1003.5 2372.5,1003C 2379.25,989.004 2385.58,974.838 2391.5,960.5 Z"/></g>
<g><path style="opacity:0.973" fill="#254aa5" d="M 2449.5,939.5 C 2456.5,939.5 2463.5,939.5 2470.5,939.5C 2478.56,968.354 2487.23,997.021 2496.5,1025.5C 2501.66,997.568 2506.49,969.568 2511,941.5C 2515.86,939.586 2521.02,938.919 2526.5,939.5C 2520.44,976.84 2514.28,1014.17 2508,1051.5C 2501.26,1052.48 2494.42,1052.81 2487.5,1052.5C 2479.18,1022.38 2470.35,992.376 2461,962.5C 2455.72,992.491 2450.56,1022.49 2445.5,1052.5C 2440.5,1052.5 2435.5,1052.5 2430.5,1052.5C 2436.51,1014.77 2442.84,977.102 2449.5,939.5 Z"/></g>
<g><path style="opacity:0.976" fill="#254aa5" d="M 2545.5,939.5 C 2557.84,939.333 2570.17,939.5 2582.5,940C 2598.17,942.667 2608.67,951.501 2614,966.5C 2619.84,988.939 2617.17,1010.27 2606,1030.5C 2597.45,1042.36 2585.95,1049.53 2571.5,1052C 2556.84,1052.5 2542.17,1052.67 2527.5,1052.5C 2533.39,1014.82 2539.39,977.15 2545.5,939.5 Z M 2558.5,955.5 C 2591.04,952.208 2605.21,966.875 2601,999.5C 2594.27,1029.81 2575.44,1041.98 2544.5,1036C 2549.33,1009.19 2554,982.358 2558.5,955.5 Z"/></g>
<g><path style="opacity:0.99" fill="#2549a4" d="M 2641.5,939.5 C 2658.5,939.5 2675.5,939.5 2692.5,939.5C 2691.83,944.833 2691.17,950.167 2690.5,955.5C 2678.5,955.333 2666.5,955.5 2654.5,956C 2652.35,966.39 2650.69,976.89 2649.5,987.5C 2661.17,987.5 2672.83,987.5 2684.5,987.5C 2683.83,992.833 2683.17,998.167 2682.5,1003.5C 2670.5,1003.5 2658.5,1003.5 2646.5,1003.5C 2644.4,1014.1 2642.73,1024.76 2641.5,1035.5C 2653.17,1035.5 2664.83,1035.5 2676.5,1035.5C 2675.65,1041.14 2674.98,1046.81 2674.5,1052.5C 2657.16,1052.67 2639.83,1052.5 2622.5,1052C 2629.21,1014.6 2635.54,977.096 2641.5,939.5 Z"/></g>
<g><path style="opacity:0.978" fill="#254aa5" d="M 2754.5,939.5 C 2766.84,939.333 2779.17,939.5 2791.5,940C 2807.17,942.667 2817.67,951.501 2823,966.5C 2828.84,988.939 2826.17,1010.27 2815,1030.5C 2806.45,1042.36 2794.95,1049.53 2780.5,1052C 2765.84,1052.5 2751.17,1052.67 2736.5,1052.5C 2742.39,1014.82 2748.39,977.15 2754.5,939.5 Z M 2767.5,955.5 C 2800.04,952.208 2814.21,966.875 2810,999.5C 2803.27,1029.81 2784.44,1041.98 2753.5,1036C 2758.33,1009.19 2763,982.358 2767.5,955.5 Z"/></g>
<g><path style="opacity:0.976" fill="#254aa5" d="M 3211.5,939.5 C 3224.89,939.075 3238.23,939.575 3251.5,941C 3266.49,946.284 3273.82,956.95 3273.5,973C 3272.93,994.232 3262.26,1006.9 3241.5,1011C 3248.53,1024.55 3254.86,1038.39 3260.5,1052.5C 3254.79,1052.83 3249.13,1052.5 3243.5,1051.5C 3234.87,1033.25 3226.54,1014.92 3218.5,996.5C 3228.05,996.969 3237.38,995.803 3246.5,993C 3254.97,986.589 3258.14,978.089 3256,967.5C 3253.79,960.979 3249.29,957.146 3242.5,956C 3236.58,955.193 3230.75,955.359 3225,956.5C 3218.96,988.387 3213.46,1020.39 3208.5,1052.5C 3203.5,1052.5 3198.5,1052.5 3193.5,1052.5C 3199.39,1014.82 3205.39,977.151 3211.5,939.5 Z"/></g>
<g><path style="opacity:0.984" fill="#2549a5" d="M 3356.5,939.5 C 3373.5,939.5 3390.5,939.5 3407.5,939.5C 3406.82,944.756 3405.82,949.923 3404.5,955C 3392.5,955.5 3380.5,955.667 3368.5,955.5C 3367.31,966.11 3365.65,976.61 3363.5,987C 3375.5,987.5 3387.5,987.667 3399.5,987.5C 3398.55,992.793 3397.89,998.126 3397.5,1003.5C 3385.25,1003.18 3373.09,1003.51 3361,1004.5C 3359.43,1014.76 3357.6,1024.92 3355.5,1035C 3367.5,1035.5 3379.5,1035.67 3391.5,1035.5C 3390.72,1040.87 3389.72,1046.21 3388.5,1051.5C 3371.51,1052.5 3354.51,1052.83 3337.5,1052.5C 3343.73,1014.81 3350.06,977.148 3356.5,939.5 Z"/></g>
<g><path style="opacity:0.978" fill="#2549a5" d="M 193.5,939.5 C 198.5,939.5 203.5,939.5 208.5,939.5C 202.443,976.84 196.277,1014.17 190,1051.5C 184.928,1052.47 179.762,1052.8 174.5,1052.5C 180.727,1014.81 187.06,977.141 193.5,939.5 Z"/></g>
<g><path style="opacity:0.966" fill="#254aa5" d="M 535.5,939.5 C 540.5,939.5 545.5,939.5 550.5,939.5C 544.608,977.182 538.608,1014.85 532.5,1052.5C 527.156,1052.67 521.823,1052.5 516.5,1052C 523.206,1014.6 529.54,977.096 535.5,939.5 Z"/></g>
<g><path style="opacity:0.974" fill="#254aa5" d="M 3004.5,939.5 C 3011.53,939.17 3018.53,939.503 3025.5,940.5C 3034.63,969.07 3043.47,997.737 3052,1026.5C 3057.27,997.562 3062.1,968.562 3066.5,939.5C 3071.87,939.172 3077.21,939.505 3082.5,940.5C 3075.74,977.755 3069.4,1015.09 3063.5,1052.5C 3056.8,1052.83 3050.13,1052.5 3043.5,1051.5C 3034.5,1022.16 3025.5,992.828 3016.5,963.5C 3010.96,993.075 3005.96,1022.74 3001.5,1052.5C 2996.16,1052.67 2990.82,1052.5 2985.5,1052C 2992.42,1014.63 2998.76,977.132 3004.5,939.5 Z"/></g>
<g><path style="opacity:0.978" fill="#2549a5" d="M 3287.5,939.5 C 3306.5,939.5 3325.5,939.5 3344.5,939.5C 3343.62,944.804 3342.95,950.137 3342.5,955.5C 3335.5,955.5 3328.5,955.5 3321.5,955.5C 3316.06,987.813 3310.73,1020.15 3305.5,1052.5C 3300.5,1052.5 3295.5,1052.5 3290.5,1052.5C 3295.24,1020.2 3300.58,988.038 3306.5,956C 3299.51,955.5 3292.51,955.334 3285.5,955.5C 3285.73,950.106 3286.4,944.773 3287.5,939.5 Z"/></g>
<g><path style="opacity:0.986" fill="#2549a5" d="M 1144.5,954.5 C 1153.57,954.119 1162.57,954.619 1171.5,956C 1182.14,961.091 1187.97,969.591 1189,981.5C 1191.61,1023.29 1172.11,1041.96 1130.5,1037.5C 1134.85,1009.75 1139.51,982.08 1144.5,954.5 Z"/></g>
<g><path style="opacity:0.964" fill="#2549a5" d="M 1462.5,956.5 C 1463.73,957.152 1464.39,958.319 1464.5,960C 1466.51,974.569 1468.84,989.069 1471.5,1003.5C 1461.5,1004.83 1451.5,1004.83 1441.5,1003.5C 1448.79,987.93 1455.79,972.263 1462.5,956.5 Z"/></g>
</svg>
