<?xml version="1.0" encoding="UTF-8" standalone="no"?>
<svg
   id="Camada_1"
   data-name="Camada 1"
   viewBox="0 0 606.79 710.02002"
   version="1.1"
   sodipodi:docname="1C Terciaria+Gradiente.svg"
   width="606.78998"
   height="710.02002"
   inkscape:version="1.1.2 (0a00cf5339, 2022-02-04)"
   xmlns:inkscape="http://www.inkscape.org/namespaces/inkscape"
   xmlns:sodipodi="http://sodipodi.sourceforge.net/DTD/sodipodi-0.dtd"
   xmlns="http://www.w3.org/2000/svg"
   xmlns:svg="http://www.w3.org/2000/svg">
  <sodipodi:namedview
     id="namedview45"
     pagecolor="#505050"
     bordercolor="#eeeeee"
     borderopacity="1"
     inkscape:pageshadow="0"
     inkscape:pageopacity="0"
     inkscape:pagecheckerboard="0"
     showgrid="false"
     fit-margin-top="0"
     fit-margin-left="0"
     fit-margin-right="0"
     fit-margin-bottom="0"
     inkscape:zoom="0.7712963"
     inkscape:cx="304.03361"
     inkscape:cy="353.94958"
     inkscape:window-width="1920"
     inkscape:window-height="1043"
     inkscape:window-x="0"
     inkscape:window-y="0"
     inkscape:window-maximized="1"
     inkscape:current-layer="Camada_1" />
  <defs
     id="defs4">
    <style
       id="style2">.cls-1{fill:#034ea2;}</style>
  </defs>
  <path
     class="cls-1"
     d="m 593.11,174.86999 c -9.39,-29.88 -29,-54.37 -58.39,-72.78 v 0 C 506.49,83.949995 468.64,74.749995 422.22,74.749995 H 112.1 v -37.38 H 37.37 v 37.36 0 37.359995 h 74.73 v 74.74 h 130.65 v 288.57 h 111.53 v -279.51 H 377 c 52.53,0 73.81,5.57 82.42,10.24 23.76,12.65 35.32,39.37 35.32,81.68 v 187.59 h 111.52 v -200.91 c 0,-38.29 -4.43,-71.81 -13.15,-99.62 z"
     id="path6" />
  <polygon
     class="cls-1"
     points="360.1,371.83 285.37,371.83 285.37,297.09 248,297.09 248,660.39 359.54,660.39 "
     id="polygon8"
     transform="translate(-248,-184.99001)" />
  <rect
     class="cls-1"
     x="0"
     y="0"
     width="37.369999"
     height="37.369999"
     id="rect10" />
  <path
     class="cls-1"
     d="m 1.42,627.83999 h 35.42 c 26.27,0 44.21,16.2 44.21,40.51 0,24.31 -17.94,40.51 -44.21,40.51 H 1.42 Z m 34.72,68.28 c 18.06,0 29.75,-11 29.75,-27.77 0,-16.77 -11.69,-27.78 -29.75,-27.78 H 16.46 v 55.55 z"
     id="path12" />
  <path
     class="cls-1"
     d="m 119.84,627.83999 h 15.05 v 81 h -15.05 z"
     id="path14" />
  <path
     class="cls-1"
     d="m 234.9,667.41999 h 14.23 v 32.29 c -8.44,6.83 -20.25,10.31 -31.71,10.31 -25.12,0 -43.63,-17.48 -43.63,-41.67 0,-24.19 18.51,-41.67 43.86,-41.67 13.54,0 24.89,4.51 32.53,13.19 l -9.49,9.26 a 30.1,30.1 0 0 0 -22.34,-9.26 c -17.25,0 -29.4,11.69 -29.4,28.48 0,16.43 12.15,28.47 29.28,28.47 a 32.73,32.73 0 0 0 16.67,-4.17 z"
     id="path16" />
  <path
     class="cls-1"
     d="m 291.74,627.83999 h 15 v 81 h -15 z"
     id="path18" />
  <path
     class="cls-1"
     d="m 367.91,640.56999 h -26.86 v -12.73 h 68.76 v 12.73 H 383 v 68.29 h -15.09 z"
     id="path20" />
  <path
     class="cls-1"
     d="M 492.46,690.10999 H 452 l -8,18.75 h -15.54 l 36.46,-81 h 14.81 l 36.58,81 h -15.74 z m -5,-11.81 -15.28,-35.42 -15.16,35.42 z"
     id="path22" />
  <path
     class="cls-1"
     d="m 549.43,627.83999 h 15 v 68.28 h 42.36 v 12.74 h -57.4 z"
     id="path24" />
  <path
     class="cls-1"
     d="m 61.1,602.10999 -0.1,-43.1 -21.35,35.64 h -5.38 l -21.35,-35.08 v 42.54 H 1.42 v -65 h 9.93 l 25.8,43.07 25.34,-43.07 h 9.94 l 0.09,65 z"
     id="path26" />
  <path
     class="cls-1"
     d="m 138.77,592.00999 v 10.1 H 90 v -65 h 47.43 v 10.12 H 102.1 v 16.9 h 31.38 v 9.93 H 102.1 v 17.95 z"
     id="path28" />
  <path
     class="cls-1"
     d="m 165.39,547.34999 h -21.54 v -10.22 H 199 v 10.22 h -21.54 v 54.76 h -12.07 z"
     id="path30" />
  <path
     class="cls-1"
     d="m 250.58,602.10999 -13.27,-19 a 23.3,23.3 0 0 1 -2.51,0.09 h -14.66 v 18.91 h -12.07 v -65 h 26.73 c 17.08,0 27.67,8.73 27.67,23.12 0,9.84 -5,17.08 -13.83,20.51 l 14.94,21.35 z m -16.33,-54.76 h -14.11 v 25.89 h 14.11 c 10.58,0 16.06,-4.83 16.06,-13 0,-8.17 -5.48,-12.89 -16.06,-12.89 z"
     id="path32" />
  <path
     class="cls-1"
     d="m 271.26,569.61999 c 0,-19.21 14.85,-33.41 35,-33.41 20.15,0 35,14.1 35,33.41 0,19.31 -14.87,33.39 -35.01,33.39 -20.14,0 -34.99,-14.17 -34.99,-33.39 z m 57.83,0 c 0,-13.27 -9.75,-22.83 -22.84,-22.83 -13.09,0 -22.83,9.56 -22.83,22.83 0,13.27 9.74,22.84 22.83,22.84 13.09,0 22.84,-9.56 22.84,-22.84 z m -18.09,-50.49 h 13.64 l -16.15,12.71 h -10 z"
     id="path34" />
  <path
     class="cls-1"
     d="m 408.43,560.24999 c 0,14.29 -10.58,23.11 -27.66,23.11 H 366.1 v 18.75 H 354 v -65 h 26.73 c 17.12,0.02 27.7,8.75 27.7,23.14 z m -12.16,0 c 0,-8.17 -5.48,-12.9 -16.06,-12.9 H 366.1 v 25.8 h 14.11 c 10.58,0 16.06,-4.74 16.06,-12.9 z"
     id="path36" />
  <path
     class="cls-1"
     d="m 416.76,569.61999 c 0,-19.21 14.85,-33.41 35,-33.41 20.15,0 35,14.1 35,33.41 0,19.31 -14.86,33.39 -35,33.39 -20.14,0 -35,-14.17 -35,-33.39 z m 57.83,0 c 0,-13.27 -9.75,-22.83 -22.83,-22.83 -13.08,0 -22.84,9.56 -22.84,22.83 0,13.27 9.75,22.84 22.84,22.84 13.09,0 22.83,-9.56 22.83,-22.84 z"
     id="path38" />
  <path
     class="cls-1"
     d="m 499.54,537.12999 h 12.07 v 54.77 h 34 v 10.21 h -46 z"
     id="path40" />
  <path
     class="cls-1"
     d="m 603.85,592.00999 v 10.1 h -48.73 v -65 h 47.43 v 10.12 h -35.37 v 16.9 h 31.38 v 9.93 h -31.38 v 17.95 z"
     id="path42" />
</svg>
